<svg width="170" height="89" viewBox="0 0 170 89" fill="none" xmlns="http://www.w3.org/2000/svg">
<path d="M20.3646 62.0229C21.0942 62.0229 21.7718 61.8868 22.3984 61.6153C23.0248 61.3438 23.5766 60.9786 24.0531 60.5108C24.5299 60.0428 24.9041 59.4905 25.1752 58.8585C25.4464 58.2218 25.5821 57.5521 25.5821 56.8409C25.5821 56.1111 25.4464 55.4367 25.1752 54.8094C24.9041 54.1868 24.5299 53.6345 24.0531 53.1572C23.5766 52.6799 23.0248 52.31 22.3984 52.0385C21.7718 51.7671 21.0942 51.631 20.3646 51.631H15.9609V62.8746C16.6151 62.4766 17.3165 62.2333 18.0643 62.1488C18.8127 62.065 19.5792 62.0229 20.3646 62.0229ZM8.55553 62.0229C9.50889 62.0229 10.3228 62.0695 10.9957 62.163C11.6691 62.2567 12.3237 62.4953 12.9591 62.8746V51.631H8.55553C7.82594 51.631 7.14831 51.7671 6.52171 52.0385C5.89523 52.31 5.34353 52.6799 4.86686 53.1572C4.39018 53.6345 4.01591 54.1868 3.74488 54.8094C3.47374 55.4367 3.33793 56.1111 3.33793 56.8409C3.33793 57.5521 3.47374 58.2218 3.74488 58.8585C4.01591 59.4905 4.39018 60.0428 4.86686 60.5108C5.34353 60.9786 5.89523 61.3438 6.52171 61.6153C7.14831 61.8868 7.82594 62.0229 8.55553 62.0229ZM20.3646 65.112C19.4481 65.112 18.6441 65.173 17.9525 65.2942C17.2603 65.4164 16.5963 65.6455 15.9609 65.9826V69.3247H12.9591V65.9826C12.2301 65.5517 11.5099 65.2989 10.7995 65.2242C10.0886 65.1496 9.34075 65.112 8.55553 65.112C7.39605 65.112 6.30218 64.8967 5.27334 64.466C4.24496 64.0354 3.33793 63.441 2.5526 62.6918C1.76726 61.9429 1.14549 61.0677 0.687505 60.0615C0.228933 59.0594 0 57.983 0 56.8409C0 55.6988 0.228933 54.6178 0.687505 53.6063C1.14549 52.5908 1.76726 51.7109 2.5526 50.9621C3.33793 50.2129 4.24496 49.6184 5.27334 49.1878C6.30218 48.7569 7.39605 48.5417 8.55553 48.5417H12.9591V47.5309H15.9609V48.5417H20.3646C21.5052 48.5417 22.5805 48.7569 23.5906 49.1878C24.6002 49.6184 25.4791 50.2129 26.227 50.9621C26.9753 51.7109 27.5644 52.5908 27.9943 53.6063C28.4246 54.6178 28.6396 55.6988 28.6396 56.8409C28.6396 57.983 28.4246 59.0594 27.9943 60.0615C27.5644 61.0677 26.9753 61.9429 26.227 62.6918C25.4791 63.441 24.6002 64.0354 23.5906 64.466C22.5805 64.8967 21.5052 65.112 20.3646 65.112ZM36.5853 48.0082H39.9513L50.0217 69.3247H46.5995L45.225 66.2636H38.8574C37.9035 66.2636 37.0574 66.3291 36.3189 66.46C35.5804 66.5912 34.9492 66.7594 34.4256 66.9653C33.902 67.1718 33.4811 67.3961 33.1632 67.6395C32.8451 67.8831 32.6302 68.1168 32.5178 68.3416L31.985 69.3247H28.6746L37.7354 50.5921L36.5853 48.0082ZM43.8503 63.1742L39.2783 54.3274L34.6499 64.3539C35.0242 64.0354 35.6408 63.7594 36.501 63.5251C37.3614 63.291 38.5207 63.1742 39.9793 63.1742H43.8503ZM58.1351 56.2042C58.771 56.5413 59.4257 56.7707 60.0985 56.8831C60.7719 56.9952 61.4453 57.0515 62.1183 57.0515H65.7091C66.7373 57.0515 67.6913 57.178 68.5697 57.4307C69.4487 57.6835 70.2112 58.0722 70.8559 58.6058C71.5012 59.1393 72.0013 59.8224 72.3567 60.6514C72.7122 61.4843 72.8896 62.4672 72.8896 63.6093C72.8896 64.653 72.6794 65.5378 72.2584 66.2541C71.8379 66.9748 71.2817 67.5645 70.5989 68.0237C69.9165 68.4774 69.1448 68.8098 68.2804 69.0158C67.4201 69.2214 66.5599 69.3247 65.6997 69.3247H55.0777V48.3734H69.2431V51.4628H58.1351V56.2042ZM58.1351 66.2354H65.9989C66.4101 66.2354 66.845 66.1885 67.2983 66.0947C67.7563 66.0015 68.1727 65.8419 68.5468 65.6176C68.9159 65.3928 69.2244 65.0838 69.4675 64.6906C69.7105 64.2976 69.8322 63.8011 69.8322 63.2025C69.8322 62.5843 69.7105 62.079 69.4675 61.6855C69.2244 61.2922 68.9065 60.9833 68.5187 60.7586C68.1257 60.534 67.6819 60.3752 67.186 60.2813C66.6952 60.1876 66.1952 60.1408 65.6903 60.1408H62.1089C61.4173 60.1408 60.7439 60.0944 60.0799 60.0007C59.4163 59.9067 58.771 59.6729 58.1351 59.2981V66.2354ZM89.2218 57.3324C91.279 57.3324 92.3073 56.3401 92.3073 54.3557C92.3073 53.2885 92.0457 52.5391 91.5221 52.1089C90.9985 51.678 90.2318 51.4628 89.2218 51.4628H81.5359L81.5406 58.175C82.1766 57.8007 82.8265 57.5664 83.4901 57.473C84.1541 57.3793 84.8322 57.3324 85.5238 57.3324H89.2218ZM78.4785 69.3247V48.3734H89.2405C90.1571 48.3734 90.9938 48.5091 91.7557 48.7805C92.5133 49.0519 93.1582 49.4452 93.6911 49.9602C94.2292 50.475 94.6404 51.1022 94.9302 51.8422C95.2199 52.5815 95.3652 53.4194 95.3652 54.3557C95.3652 55.2914 95.2199 56.1296 94.9302 56.8692C94.6404 57.6085 94.2292 58.2452 93.6911 58.7788C93.1582 59.3122 92.5133 59.7199 91.751 60.0007C90.9938 60.2814 90.1571 60.4216 89.2358 60.4216H85.5285C84.8509 60.4216 84.1776 60.478 83.5042 60.5904C82.8312 60.7023 82.1719 60.9274 81.5359 61.264V69.3247H78.4785ZM116.298 48.3734H119.355V69.3247H116.298V53.1758L104.012 69.3247H100.954V48.3734H104.012V64.5223L116.298 48.3734ZM129.685 69.3247H126.627V48.3734H129.685V57.0234H131.087C131.742 57.0234 132.406 56.9722 133.079 56.8692C133.752 56.766 134.397 56.546 135.014 56.2042L140.316 48.3734H143.99L137.118 58.2312L140.877 63.8761C141.213 64.4003 141.54 64.8172 141.858 65.1261C142.176 65.435 142.476 65.6737 142.756 65.8419C143.037 66.0108 143.308 66.1183 143.569 66.1652C143.831 66.212 144.084 66.2354 144.327 66.2354C144.439 66.2354 144.551 66.2307 144.663 66.2214C144.776 66.212 144.888 66.2072 145 66.2072V69.3247H143.906C143.42 69.3247 142.957 69.2965 142.518 69.2403C142.079 69.1841 141.643 69.0484 141.213 68.8332C140.783 68.6176 140.344 68.2902 139.895 67.85C139.446 67.4104 138.979 66.7971 138.492 66.0108L134.481 59.5791C133.995 59.7853 133.495 59.9257 132.981 60.0007C132.467 60.0755 131.957 60.1126 131.452 60.1126H129.685V69.3247ZM156.564 48.0082H159.93L170 69.3247H166.578L165.203 66.2636H158.836C157.882 66.2636 157.036 66.3291 156.297 66.46C155.559 66.5912 154.927 66.7594 154.404 66.9653C153.881 67.1718 153.459 67.3961 153.142 67.6395C152.824 67.8831 152.609 68.1168 152.496 68.3416L151.963 69.3247H148.654L157.714 50.5921L156.564 48.0082ZM163.829 63.1742L159.257 54.3274L154.628 64.3539C155.002 64.0354 155.619 63.7594 156.479 63.5251C157.34 63.291 158.499 63.1742 159.958 63.1742H163.829Z" fill="white"/>
<path fill-rule="evenodd" clip-rule="evenodd" d="M100.683 2.10335C100.901 0.920938 100.307 0.539854 99.9129 0.862853C99.3484 1.32613 98.2318 2.45974 97.6342 3.0473L89.8451 10.7988C89.4722 11.1779 89.178 11.4648 88.7269 11.9124C86.8877 13.7377 85.0388 15.6867 83.2264 17.4433C82.8395 17.8182 82.5058 18.1963 82.1219 18.5697C81.7783 18.9039 81.3576 19.3248 81.0102 19.6924C80.7929 19.9224 80.6226 20.0819 80.4377 20.2577L67.7809 33.0753C67.407 33.4517 67.0862 33.7553 66.9126 34.4396C66.5739 35.7747 67.397 36.6655 68.2617 37.3995C68.6115 37.6966 69.297 37.9992 69.9495 37.9194C71.0909 37.7802 71.4142 37.2405 71.9677 36.6112L72.9952 35.4069C73.1787 35.1903 73.3134 35.0271 73.497 34.8133L77.5871 30.0181C78.4261 29.0427 79.8631 27.2821 80.6587 26.4357C80.849 26.2335 80.9739 26.0303 81.1743 25.814C81.6622 25.2873 82.1849 24.612 82.6877 24.0436C83.3786 23.2625 84.0423 22.4734 84.7207 21.657C84.9156 21.4223 85.0094 21.2306 85.366 21.1611C86.2272 20.9931 87.0802 21.1336 88.115 20.5845C88.7008 20.274 89.9084 18.9544 90.3699 18.418C90.4697 18.3022 90.5479 18.2575 90.6556 18.1377C90.7591 18.0221 90.829 17.9511 90.9262 17.8367C91.1047 17.6268 91.2759 17.4556 91.4481 17.2636C92.0659 16.5749 93.905 14.406 94.4567 13.6214C95.0524 12.7743 95.7545 11.9379 96.3283 11.0269C96.61 10.5797 96.9437 10.1167 97.2137 9.6773C98.5728 7.46428 100.201 4.71897 100.683 2.10335ZM87.0487 24.8978C89.385 27.5971 91.6076 30.3298 93.9635 32.9972C94.3141 33.3943 94.5969 33.7247 94.9844 34.1202C95.7303 34.8813 96.3179 35.5362 97.1523 36.2389C97.8608 36.836 98.776 37.5753 99.8443 37.8405C101.194 38.1759 102.15 37.3356 102.546 36.4792C103.079 35.3264 102.287 34.0364 101.785 33.3098C100.469 31.4022 98.1763 29.5096 96.4231 27.9504C96.0429 27.6124 95.6684 27.3053 95.2704 26.9593C93.7857 25.6686 92.1398 24.3455 90.6229 23.027C90.2373 22.6916 89.847 22.369 89.4717 22.0299C88.4346 21.092 88.7105 21.2955 88.2048 21.5075C87.05 21.991 85.7429 21.9127 85.544 22.0396C85.4407 22.1055 85.1953 22.4697 85.0617 22.5944L87.0487 24.8978ZM80.8554 18.6155C81.2294 18.1655 82.8796 16.5913 83.4156 16.0157C82.7379 14.7095 83.0335 14.4929 83.1239 13.4431C83.2495 11.9833 82.9616 10.361 81.9207 9.35807C81.7568 9.20027 81.5687 8.99051 81.3991 8.82906C81.2117 8.65046 81.0454 8.49301 80.8653 8.3117C80.2561 7.69874 79.339 6.9073 78.6409 6.29211C77.0924 4.92721 75.0863 3.29552 73.4411 1.94896C73.2412 1.78529 73.0334 1.61961 72.849 1.44783L71.7239 0.470362C71.3089 0.0963326 70.9037 -0.230429 70.2634 0.215208C69.7919 0.543146 69.6947 1.19432 70.1894 1.61315C71.3443 2.59037 73.4505 4.60292 74.5822 5.71089L76.7716 7.76765C77.3939 8.36673 78.8721 9.27282 78.0175 10.2555C77.8867 10.4057 77.603 10.5882 77.3435 10.6311C76.901 10.7044 76.7554 10.6161 76.5271 10.3779C74.5093 8.27231 72.1994 6.10938 70.1644 4.00313C69.8094 3.63592 68.8938 2.59731 68.4724 2.53582C67.6947 2.42258 66.8391 3.35948 67.768 4.25699C68.1381 4.61444 68.4508 4.94884 68.8191 5.30641L75.1857 11.677C75.4147 11.903 75.5121 11.959 75.4694 12.4379C75.4103 13.1033 74.6079 13.9405 73.6503 13.0841C73.3102 12.7798 72.1632 11.4442 71.6055 10.8828C70.6471 9.91788 69.4863 8.59719 68.5176 7.62267L66.4941 5.40095C66.0128 4.84937 65.4284 4.94014 65.0761 5.40412C64.6243 5.99874 64.9047 6.42874 65.2702 6.84298L69.1472 11.4573C70.3667 12.9044 71.7882 14.6613 73.0994 15.9994C73.8227 16.7375 74.447 17.5319 75.4115 17.9312C76.261 18.283 77.2789 18.3677 78.2289 18.3089C79.1858 18.2495 79.5068 17.8697 80.8554 18.6155Z" fill="white"/>
<path fill-rule="evenodd" clip-rule="evenodd" d="M50.7734 20.7563H69.4073V22.8549H50.7734V20.7563Z" fill="white"/>
<path fill-rule="evenodd" clip-rule="evenodd" d="M102.25 20.7563H120.884V22.8549H102.25V20.7563Z" fill="white"/>
<path d="M39.4322 81.7603V86.7672H38.1333V83.2796L36.0294 86.0882L33.9256 83.2796V86.7672H32.6267V81.7603L32.0403 80.8051H33.4889L36.0294 84.1776L38.5701 80.8051H40.0186L39.4322 81.7603ZM43.6657 85.5702H47.4018V86.7672H42.493V80.8051H47.1834V81.9907H43.6657V83.4408C43.9262 83.2873 44.2156 83.1914 44.5337 83.153C44.8517 83.1146 45.1832 83.0955 45.528 83.0955H46.4017V84.2812H45.528C45.2521 84.2812 45.0241 84.2868 44.8441 84.2982C44.6639 84.3098 44.5087 84.3272 44.3784 84.3502C44.2482 84.3731 44.1293 84.4077 44.0221 84.4538C43.9148 84.4996 43.7959 84.5573 43.6657 84.6263V85.5702ZM55.4863 86.0996C55.1569 86.3836 54.7812 86.5965 54.3598 86.7385C53.9383 86.8805 53.4976 86.9514 53.0378 86.9514C52.5855 86.9514 52.1486 86.8805 51.7271 86.7385C51.3057 86.5965 50.9321 86.3893 50.6063 86.117C50.2806 85.8444 50.0201 85.5109 49.8246 85.1154C49.6292 84.7205 49.5314 84.2697 49.5314 83.7632C49.5314 83.2567 49.6311 82.8077 49.8303 82.4163C50.0296 82.0251 50.294 81.6951 50.6236 81.4266C50.9532 81.158 51.3286 80.9547 51.7503 80.8164C52.1717 80.6785 52.6046 80.6093 53.0492 80.6093C53.4861 80.6093 53.898 80.6648 54.2851 80.7762C54.6721 80.8875 55.0304 81.0659 55.3599 81.3115L54.5667 82.2324C54.3445 82.0789 54.1069 81.9694 53.8539 81.9044C53.601 81.839 53.3328 81.8064 53.0492 81.8064C52.7581 81.8064 52.4783 81.8468 52.21 81.9272C51.9418 82.0077 51.7004 82.1287 51.4857 82.2899C51.2712 82.4509 51.1006 82.6562 50.9742 82.9056C50.8477 83.1551 50.7846 83.4486 50.7846 83.786C50.7846 84.1239 50.8496 84.4155 50.9799 84.6609C51.1102 84.9065 51.2826 85.1099 51.4972 85.2709C51.7118 85.432 51.9552 85.5531 52.2272 85.6335C52.4994 85.7139 52.7771 85.7545 53.0607 85.7545C53.3826 85.7545 53.6949 85.6987 53.9976 85.5876C54.3004 85.4763 54.5667 85.317 54.7966 85.1099L55.4863 86.0996ZM60.444 81.9907V86.7672H59.2599V81.9907H57.0986V80.8051H62.6857V81.9907H60.444ZM70.207 83.7399C70.207 83.4102 70.1418 83.1243 70.0115 82.8825C69.8811 82.6408 69.7106 82.4415 69.4962 82.284C69.2815 82.1267 69.0401 82.0116 68.768 81.9388C68.496 81.8659 68.22 81.8293 67.9366 81.8293C67.6452 81.8293 67.3655 81.8677 67.0934 81.9446C66.8233 82.0212 66.5819 82.1404 66.3712 82.3012C66.1604 82.4624 65.9917 82.6658 65.8615 82.9115C65.7312 83.1569 65.666 83.4486 65.666 83.786C65.666 84.1239 65.7312 84.4155 65.8615 84.6609C65.9917 84.9065 66.1622 85.1099 66.3768 85.2709C66.5914 85.432 66.8328 85.551 67.1049 85.6279C67.3771 85.7045 67.6568 85.743 67.948 85.743C68.2316 85.743 68.5055 85.6988 68.7739 85.6104C69.0419 85.5223 69.2815 85.3936 69.4962 85.2248C69.7106 85.0562 69.8811 84.847 70.0115 84.5977C70.1418 84.3481 70.207 84.0624 70.207 83.7399ZM71.46 83.7287C71.46 84.2351 71.3604 84.6877 71.1611 85.0869C70.9618 85.4857 70.6974 85.8235 70.3718 86.0996C70.046 86.376 69.6704 86.587 69.2432 86.7327C68.8178 86.8785 68.3771 86.9514 67.9249 86.9514C67.4728 86.9514 67.034 86.8805 66.6126 86.7385C66.191 86.5965 65.8155 86.3893 65.4897 86.117C65.1641 85.8444 64.9015 85.5109 64.7061 85.1154C64.5107 84.7205 64.4128 84.2697 64.4128 83.7632C64.4128 83.2567 64.5126 82.8077 64.7117 82.4163C64.911 82.0251 65.1774 81.6951 65.507 81.4266C65.8365 81.158 66.214 80.9547 66.6355 80.8164C67.0569 80.6785 67.492 80.6093 67.9366 80.6093C68.381 80.6093 68.8178 80.6747 69.2432 80.8051C69.6704 80.9354 70.046 81.131 70.3718 81.3921C70.6974 81.6529 70.9618 81.9791 71.1611 82.3703C71.3604 82.7618 71.46 83.2144 71.46 83.7287ZM81.6829 85.5702V81.9907H80.1537C80.0848 82.3051 80.0083 82.6274 79.9239 82.9574C79.8395 83.2873 79.7456 83.6097 79.6422 83.9242C79.5388 84.2388 79.42 84.538 79.2859 84.8221C79.1517 85.106 79.0042 85.3553 78.8433 85.5702H81.6829ZM82.407 88.0908V86.7672H77.4867V88.0908H76.2911V85.5702H77.4409C77.7244 85.2095 77.9524 84.8661 78.1247 84.5401C78.2972 84.2139 78.4314 83.9032 78.5271 83.6077C78.6229 83.3123 78.6976 83.0302 78.7513 82.7618C78.8049 82.4932 78.8587 82.2362 78.9123 81.9907H77.9695L77.4409 80.8051H82.8554V85.5702H83.6027V88.0908H82.407ZM86.6748 81.9907L86.1691 80.8051H91.8137V86.7672H90.5606V81.9907H88.8937C88.8554 82.3512 88.8056 82.7272 88.7443 83.1185C88.6829 83.51 88.6005 83.8935 88.497 84.2697C88.3937 84.6454 88.2634 85.0042 88.1062 85.3459C87.9491 85.6871 87.7594 85.9884 87.5372 86.2494C87.4375 86.3644 87.3303 86.4566 87.2154 86.5256C87.1003 86.5947 86.9853 86.6464 86.8704 86.6809C86.7554 86.7155 86.6463 86.7385 86.5427 86.7501C86.4393 86.7616 86.353 86.7672 86.284 86.7672H85.6748V85.5702H85.9851C86.1079 85.5702 86.2419 85.528 86.3876 85.4436C86.5332 85.3591 86.6903 85.1828 86.8589 84.9142C87.0044 84.6763 87.1213 84.4441 87.2095 84.2177C87.2977 83.9915 87.3705 83.7591 87.428 83.5215C87.4855 83.2835 87.5294 83.04 87.5601 82.7903C87.5908 82.5412 87.6176 82.2745 87.6406 81.9907H86.6748ZM99.059 82.0021L97.0471 81.9907C96.9169 81.9907 96.7885 81.9963 96.6622 82.0077C96.5357 82.0192 96.4188 82.05 96.3116 82.0998C96.2042 82.1498 96.1179 82.2227 96.0529 82.3186C95.9876 82.4146 95.9552 82.543 95.9552 82.7043C95.9552 82.8654 95.9876 82.9919 96.0529 83.084C96.1179 83.176 96.2042 83.2472 96.3116 83.297C96.4188 83.3468 96.5357 83.3776 96.6622 83.3892C96.7885 83.4005 96.9169 83.4062 97.0471 83.4062C97.4688 83.4062 97.8442 83.4255 98.1738 83.464C98.5034 83.5023 98.7984 83.5983 99.059 83.7516V82.0021ZM96.7599 85.8235C96.6295 86.0459 96.4992 86.2207 96.3689 86.347C96.2387 86.4736 96.1006 86.5678 95.9552 86.6293C95.8095 86.6904 95.6563 86.7289 95.4953 86.7442C95.3343 86.7596 95.1618 86.7672 94.9779 86.7672H94.4606V85.5587H95.0699C95.1772 85.5587 95.2921 85.5243 95.4149 85.4551C95.5374 85.386 95.6831 85.221 95.8516 84.9602L96.0931 84.5803C95.5872 84.473 95.2078 84.2599 94.955 83.9416C94.702 83.623 94.5756 83.2221 94.5756 82.7388C94.5756 82.4547 94.6254 82.1959 94.725 81.9617C94.8247 81.7278 94.9664 81.5245 95.1503 81.3516C95.3343 81.1791 95.5508 81.045 95.7998 80.949C96.049 80.8529 96.323 80.8051 96.6218 80.8051H100.266V86.7672H99.059V85.0178C98.9287 84.9487 98.8118 84.893 98.7085 84.8507C98.6049 84.8087 98.4938 84.7721 98.375 84.7414C98.2561 84.7108 98.1221 84.6877 97.9726 84.6724C97.8232 84.6571 97.6449 84.6455 97.438 84.6379L96.7599 85.8235ZM107.776 85.5702H111.512V86.7672H106.603V80.8051H111.294V81.9907H107.776V83.4408C108.037 83.2873 108.326 83.1914 108.644 83.153C108.962 83.1146 109.293 83.0955 109.638 83.0955H110.512V84.2812H109.638C109.362 84.2812 109.134 84.2868 108.954 84.2982C108.774 84.3098 108.619 84.3272 108.489 84.3502C108.358 84.3731 108.24 84.4077 108.132 84.4538C108.025 84.4996 107.906 84.5573 107.776 84.6263V85.5702ZM118.804 85.5702V81.9907H117.274C117.205 82.3051 117.129 82.6274 117.045 82.9574C116.96 83.2873 116.866 83.6097 116.763 83.9242C116.659 84.2388 116.541 84.538 116.407 84.8221C116.272 85.106 116.125 85.3553 115.964 85.5702H118.804ZM119.528 88.0908V86.7672H114.607V88.0908H113.412V85.5702H114.561C114.845 85.2095 115.073 84.8661 115.245 84.5401C115.418 84.2139 115.552 83.9032 115.648 83.6077C115.744 83.3123 115.818 83.0302 115.872 82.7618C115.926 82.4932 115.979 82.2362 116.033 81.9907H115.09L114.561 80.8051H119.976V85.5702H120.723V88.0908H119.528ZM124.439 85.5702H126.566C126.689 85.5702 126.806 85.5605 126.917 85.5413C127.028 85.5223 127.126 85.4877 127.21 85.438C127.294 85.388 127.363 85.319 127.417 85.2307C127.471 85.1424 127.497 85.0254 127.497 84.8797C127.497 84.7414 127.471 84.6284 127.417 84.5401C127.363 84.4518 127.294 84.3827 127.21 84.3328C127.126 84.2829 127.026 84.2505 126.911 84.2351C126.796 84.2197 126.681 84.2122 126.566 84.2122H126.302C125.957 84.2122 125.625 84.1929 125.307 84.1545C124.989 84.1161 124.7 84.0201 124.439 83.8666V85.5702ZM129.647 86.7672V80.8051H130.82V86.7672H129.647ZM124.439 82.6811C124.57 82.7503 124.688 82.8077 124.796 82.8538C124.903 82.8999 125.022 82.9344 125.152 82.9574C125.282 82.9805 125.438 82.9976 125.618 83.0093C125.798 83.0207 126.026 83.0263 126.302 83.0263H126.566C126.865 83.0263 127.143 83.0668 127.4 83.1474C127.656 83.228 127.879 83.3449 128.066 83.4984C128.254 83.652 128.404 83.8474 128.515 84.0853C128.626 84.3234 128.681 84.5956 128.681 84.9027C128.681 85.2172 128.626 85.4917 128.515 85.7256C128.404 85.9598 128.254 86.1533 128.066 86.3069C127.879 86.4605 127.656 86.5756 127.4 86.6522C127.143 86.7289 126.865 86.7672 126.566 86.7672H123.255V80.8051H124.439V82.6811Z" fill="white"/>
</svg>
