<svg width="342" height="178" viewBox="0 0 342 178" fill="none" xmlns="http://www.w3.org/2000/svg">
<path d="M40.9184 124.668C42.3844 124.668 43.7459 124.395 45.0049 123.849C46.2635 123.304 47.3722 122.57 48.3298 121.63C49.2878 120.689 50.0396 119.58 50.5844 118.31C51.1292 117.031 51.4018 115.685 51.4018 114.256C51.4018 112.79 51.1292 111.435 50.5844 110.174C50.0396 108.923 49.2878 107.813 48.3298 106.854C47.3722 105.895 46.2635 105.152 45.0049 104.606C43.7459 104.061 42.3844 103.788 40.9184 103.788H32.0701V126.38C33.3846 125.58 34.7939 125.091 36.2965 124.921C37.8003 124.753 39.3404 124.668 40.9184 124.668ZM17.1906 124.668C19.1061 124.668 20.7415 124.762 22.0936 124.95C23.4467 125.138 24.7619 125.617 26.0386 126.38V103.788H17.1906C15.7246 103.788 14.363 104.061 13.104 104.606C11.8452 105.152 10.7367 105.895 9.77892 106.854C8.82113 107.813 8.06912 108.923 7.52455 110.174C6.97974 111.435 6.70686 112.79 6.70686 114.256C6.70686 115.685 6.97974 117.031 7.52455 118.31C8.06912 119.58 8.82113 120.689 9.77892 121.63C10.7367 122.57 11.8452 123.304 13.104 123.849C14.363 124.395 15.7246 124.668 17.1906 124.668ZM40.9184 130.875C39.077 130.875 37.4615 130.998 36.0718 131.241C34.6809 131.487 33.3468 131.947 32.0701 132.624V139.34H26.0386V132.624C24.5738 131.759 23.1268 131.251 21.6993 131.1C20.2709 130.951 18.7683 130.875 17.1906 130.875C14.8608 130.875 12.6629 130.442 10.5957 129.577C8.52935 128.712 6.70686 127.518 5.1289 126.012C3.55093 124.507 2.3016 122.749 1.38138 120.727C0.459974 118.714 -2.00272e-05 116.551 -2.00272e-05 114.256C-2.00272e-05 111.961 0.459974 109.789 1.38138 107.757C2.3016 105.716 3.55093 103.948 5.1289 102.444C6.70686 100.938 8.52935 99.7438 10.5957 98.8787C12.6629 98.0128 14.8608 97.5804 17.1906 97.5804H26.0386V95.5496H32.0701V97.5804H40.9184C43.2103 97.5804 45.3709 98.0128 47.4003 98.8787C49.4291 99.7438 51.1949 100.938 52.6977 102.444C54.2013 103.948 55.3849 105.716 56.2487 107.757C57.1134 109.789 57.5452 111.961 57.5452 114.256C57.5452 116.551 57.1134 118.714 56.2487 120.727C55.3849 122.749 54.2013 124.507 52.6977 126.012C51.1949 127.518 49.4291 128.712 47.4003 129.577C45.3709 130.442 43.2103 130.875 40.9184 130.875ZM73.5106 96.5085H80.2739L100.508 139.34H93.6319L90.8703 133.189H78.0758C76.1593 133.189 74.4592 133.321 72.9752 133.583C71.4915 133.847 70.2231 134.185 69.171 134.599C68.119 135.014 67.2734 135.465 66.6345 135.954C65.9955 136.443 65.5636 136.913 65.3377 137.364L64.2672 139.34H57.6156L75.8214 101.7L73.5106 96.5085ZM88.108 126.982L78.9216 109.206L69.6218 129.352C70.3738 128.712 71.6127 128.157 73.3412 127.686C75.0699 127.216 77.3994 126.982 80.3302 126.982H88.108ZM116.81 112.977C118.088 113.654 119.404 114.115 120.755 114.341C122.109 114.566 123.462 114.679 124.814 114.679H132.029C134.095 114.679 136.012 114.933 137.777 115.441C139.543 115.949 141.075 116.73 142.37 117.802C143.667 118.874 144.672 120.247 145.386 121.912C146.1 123.586 146.457 125.561 146.457 127.856C146.457 129.953 146.034 131.731 145.188 133.17C144.343 134.618 143.226 135.803 141.854 136.725C140.483 137.637 138.932 138.305 137.195 138.719C135.467 139.132 133.738 139.34 132.01 139.34H110.667V97.2423H139.13V103.45H116.81V112.977ZM116.81 133.132H132.611C133.437 133.132 134.311 133.038 135.222 132.85C136.142 132.662 136.979 132.342 137.731 131.891C138.472 131.439 139.092 130.818 139.581 130.028C140.069 129.239 140.313 128.241 140.313 127.038C140.313 125.796 140.069 124.781 139.581 123.99C139.092 123.2 138.453 122.579 137.674 122.128C136.885 121.677 135.993 121.357 134.996 121.169C134.01 120.981 133.005 120.887 131.991 120.887H124.795C123.405 120.887 122.052 120.793 120.718 120.605C119.385 120.416 118.088 119.946 116.81 119.193V133.132ZM179.273 115.244C183.406 115.244 185.472 113.25 185.472 109.262C185.472 107.118 184.947 105.612 183.895 104.748C182.843 103.882 181.302 103.45 179.273 103.45H163.829L163.839 116.937C165.117 116.185 166.423 115.714 167.756 115.526C169.09 115.338 170.453 115.244 171.842 115.244H179.273ZM157.686 139.34V97.2423H179.31C181.152 97.2423 182.833 97.515 184.364 98.0603C185.886 98.6056 187.182 99.3958 188.253 100.431C189.334 101.465 190.16 102.725 190.743 104.212C191.325 105.698 191.617 107.381 191.617 109.262C191.617 111.143 191.325 112.827 190.743 114.313C190.16 115.798 189.334 117.078 188.253 118.15C187.182 119.222 185.886 120.041 184.355 120.605C182.833 121.169 181.152 121.451 179.301 121.451H171.852C170.49 121.451 169.137 121.564 167.784 121.79C166.432 122.015 165.107 122.467 163.829 123.143V139.34H157.686ZM233.676 97.2423H239.82V139.34H233.676V106.892L208.99 139.34H202.847V97.2423H208.99V129.69L233.676 97.2423ZM260.574 139.34H254.431V97.2423H260.574V114.623H263.392C264.707 114.623 266.042 114.52 267.394 114.313C268.747 114.105 270.043 113.663 271.283 112.977L281.936 97.2423H289.319L275.51 117.049L283.063 128.392C283.739 129.445 284.396 130.283 285.035 130.903C285.674 131.524 286.275 132.004 286.839 132.342C287.402 132.681 287.947 132.897 288.473 132.991C288.999 133.085 289.507 133.132 289.996 133.132C290.22 133.132 290.446 133.123 290.671 133.104C290.897 133.085 291.123 133.076 291.347 133.076V139.34H289.15C288.173 139.34 287.242 139.283 286.36 139.17C285.477 139.057 284.603 138.784 283.739 138.352C282.875 137.919 281.992 137.261 281.09 136.377C280.188 135.493 279.249 134.261 278.272 132.681L270.212 119.758C269.235 120.172 268.23 120.454 267.197 120.605C266.164 120.755 265.139 120.83 264.125 120.83H260.574V139.34ZM314.582 96.5085H321.346L341.58 139.34H334.704L331.942 133.189H319.148C317.231 133.189 315.531 133.321 314.047 133.583C312.563 133.847 311.295 134.185 310.243 134.599C309.191 135.014 308.345 135.465 307.706 135.954C307.067 136.443 306.635 136.913 306.41 137.364L305.339 139.34H298.688L316.893 101.7L314.582 96.5085ZM329.18 126.982L319.994 109.206L310.694 129.352C311.445 128.712 312.685 128.157 314.413 127.686C316.141 127.216 318.471 126.982 321.402 126.982H329.18Z" fill="white"/>
<path fill-rule="evenodd" clip-rule="evenodd" d="M202.303 4.27238C202.741 1.89658 201.547 1.13087 200.755 1.77987C199.621 2.71072 197.377 4.98848 196.176 6.16906L180.526 21.7441C179.777 22.5058 179.186 23.0823 178.279 23.9817C174.584 27.6491 170.869 31.5653 167.227 35.0948C166.45 35.8482 165.779 36.6078 165.008 37.3581C164.317 38.0296 163.472 38.8754 162.774 39.6139C162.338 40.076 161.995 40.3966 161.624 40.7498L136.193 66.5041C135.441 67.2603 134.797 67.8703 134.448 69.2454C133.767 71.9281 135.421 73.7179 137.159 75.1927C137.861 75.7897 139.239 76.3976 140.55 76.2374C142.843 75.9577 143.493 74.8732 144.605 73.6088L146.67 71.189C147.038 70.7539 147.309 70.4259 147.678 69.9962L155.896 60.3614C157.582 58.4014 160.469 54.8639 162.068 53.1633C162.45 52.7569 162.701 52.3487 163.104 51.914C164.084 50.8558 165.134 49.4989 166.145 48.3569C167.533 46.7874 168.867 45.2019 170.229 43.5613C170.621 43.0897 170.81 42.7046 171.526 42.565C173.257 42.2274 174.97 42.5097 177.05 41.4064C178.227 40.7824 180.653 38.1312 181.58 37.0534C181.781 36.8206 181.938 36.7309 182.155 36.4901C182.362 36.2579 182.503 36.1152 182.698 35.8853C183.057 35.4636 183.401 35.1196 183.747 34.7338C184.988 33.35 188.684 28.992 189.792 27.4155C190.989 25.7135 192.4 24.033 193.553 22.2024C194.119 21.304 194.789 20.3736 195.332 19.4907C198.063 15.0441 201.335 9.52793 202.303 4.27238ZM174.907 50.073C179.602 55.4968 184.067 60.9877 188.801 66.3472C189.505 67.145 190.074 67.8089 190.852 68.6037C192.351 70.133 193.532 71.4487 195.208 72.8608C196.632 74.0605 198.471 75.5459 200.617 76.0789C203.329 76.7527 205.25 75.0644 206.046 73.3435C207.116 71.0272 205.525 68.4352 204.518 66.9754C201.872 63.1423 197.266 59.3395 193.743 56.2068C192.979 55.5275 192.227 54.9104 191.427 54.2153C188.444 51.6219 185.137 48.9633 182.089 46.3142C181.314 45.6401 180.53 44.9921 179.776 44.3107C177.692 42.4261 178.246 42.8351 177.23 43.261C174.91 44.2325 172.284 44.0752 171.884 44.3301C171.676 44.4626 171.183 45.1943 170.915 45.445L174.907 50.073ZM162.463 37.45C163.215 36.5459 166.53 33.3829 167.607 32.2264C166.245 29.6018 166.839 29.1666 167.021 27.0573C167.273 24.1242 166.695 20.8645 164.603 18.8492C164.274 18.5322 163.896 18.1107 163.555 17.7863C163.179 17.4274 162.845 17.1111 162.483 16.7468C161.259 15.5152 159.416 13.9249 158.014 12.6888C154.902 9.94635 150.871 6.6678 147.566 3.96218C147.164 3.63331 146.746 3.30042 146.376 2.95525L144.115 0.991238C143.281 0.239703 142.467 -0.416857 141.181 0.478559C140.233 1.13748 140.038 2.44588 141.032 3.28743C143.352 5.25096 147.584 9.29475 149.858 11.521L154.258 15.6536C155.508 16.8574 158.478 18.678 156.761 20.6524C156.498 20.9543 155.928 21.321 155.407 21.4072C154.517 21.5544 154.225 21.377 153.766 20.8983C149.712 16.6676 145.071 12.3217 140.982 8.0896C140.268 7.35177 138.429 5.2649 137.582 5.14134C136.019 4.91382 134.3 6.79632 136.167 8.59968C136.91 9.3179 137.539 9.98982 138.278 10.7083L151.071 23.5087C151.531 23.9628 151.727 24.0753 151.641 25.0375C151.522 26.3745 149.91 28.0567 147.986 26.336C147.303 25.7246 144.998 23.0409 143.877 21.9128C141.952 19.9741 139.619 17.3204 137.673 15.3623L133.607 10.8982C132.64 9.78994 131.466 9.97233 130.758 10.9046C129.85 12.0994 130.413 12.9634 131.148 13.7957L138.938 23.0671C141.388 25.9748 144.244 29.5049 146.879 32.1935C148.332 33.6768 149.587 35.2729 151.525 36.0753C153.231 36.7821 155.277 36.9522 157.186 36.8341C159.108 36.7148 159.753 35.9517 162.463 37.45Z" fill="white"/>
<path fill-rule="evenodd" clip-rule="evenodd" d="M102.019 41.7517H139.46V45.9684H102.019V41.7517Z" fill="white"/>
<path fill-rule="evenodd" clip-rule="evenodd" d="M205.45 41.7517H242.891V45.9684H205.45V41.7517Z" fill="white"/>
<path d="M79.2313 164.326V174.387H76.6214V167.379L72.394 173.022L68.1669 167.379V174.387H65.557V164.326L64.3787 162.407H67.2894L72.394 169.183L77.4991 162.407H80.4095L79.2313 164.326ZM87.7375 171.982H95.2446V174.387H85.3813V162.407H94.8056V164.789H87.7375V167.703C88.2611 167.394 88.8425 167.202 89.4816 167.125C90.1207 167.048 90.7867 167.009 91.4796 167.009H93.235V169.392H91.4796C90.9251 169.392 90.467 169.403 90.1053 169.426C89.7433 169.449 89.4315 169.484 89.1697 169.53C88.9079 169.576 88.6691 169.646 88.4536 169.738C88.2382 169.83 87.9993 169.946 87.7375 170.085V171.982ZM111.489 173.045C110.827 173.616 110.072 174.044 109.225 174.329C108.378 174.614 107.493 174.757 106.569 174.757C105.66 174.757 104.782 174.614 103.935 174.329C103.089 174.044 102.338 173.627 101.683 173.08C101.029 172.533 100.505 171.862 100.113 171.068C99.72 170.274 99.5235 169.368 99.5235 168.351C99.5235 167.333 99.7238 166.431 100.124 165.644C100.524 164.858 101.056 164.195 101.718 163.656C102.38 163.116 103.135 162.708 103.982 162.43C104.829 162.153 105.699 162.014 106.592 162.014C107.47 162.014 108.297 162.125 109.075 162.349C109.853 162.573 110.573 162.931 111.235 163.425L109.641 165.275C109.194 164.966 108.717 164.746 108.209 164.616C107.701 164.484 107.162 164.419 106.592 164.419C106.007 164.419 105.445 164.5 104.906 164.662C104.367 164.823 103.882 165.067 103.45 165.39C103.019 165.714 102.677 166.126 102.423 166.628C102.168 167.129 102.042 167.719 102.042 168.397C102.042 169.075 102.172 169.661 102.434 170.154C102.696 170.648 103.042 171.057 103.473 171.38C103.905 171.704 104.394 171.947 104.94 172.109C105.487 172.27 106.045 172.352 106.615 172.352C107.262 172.352 107.889 172.24 108.497 172.017C109.106 171.793 109.641 171.473 110.103 171.057L111.489 173.045ZM121.45 164.789V174.387H119.071V164.789H114.728V162.407H125.954V164.789H121.45ZM141.067 168.304C141.067 167.642 140.936 167.067 140.674 166.581C140.412 166.095 140.07 165.695 139.639 165.379C139.207 165.063 138.722 164.831 138.175 164.685C137.629 164.539 137.074 164.465 136.505 164.465C135.919 164.465 135.357 164.542 134.811 164.697C134.268 164.851 133.783 165.09 133.36 165.413C132.936 165.737 132.597 166.146 132.335 166.639C132.074 167.132 131.943 167.719 131.943 168.397C131.943 169.075 132.074 169.661 132.335 170.154C132.597 170.648 132.94 171.057 133.371 171.38C133.802 171.704 134.287 171.943 134.834 172.097C135.381 172.251 135.943 172.329 136.528 172.329C137.098 172.329 137.648 172.24 138.187 172.062C138.726 171.885 139.207 171.627 139.639 171.287C140.07 170.949 140.412 170.528 140.674 170.028C140.936 169.526 141.067 168.952 141.067 168.304ZM143.585 168.281C143.585 169.299 143.384 170.208 142.984 171.01C142.584 171.812 142.052 172.491 141.398 173.045C140.743 173.601 139.989 174.025 139.13 174.317C138.276 174.61 137.39 174.757 136.481 174.757C135.573 174.757 134.691 174.614 133.845 174.329C132.998 174.044 132.243 173.627 131.588 173.08C130.934 172.533 130.407 171.862 130.014 171.068C129.621 170.274 129.425 169.368 129.425 168.351C129.425 167.333 129.625 166.431 130.025 165.644C130.426 164.858 130.961 164.195 131.623 163.656C132.285 163.116 133.044 162.708 133.891 162.43C134.737 162.153 135.612 162.014 136.505 162.014C137.398 162.014 138.276 162.145 139.13 162.407C139.989 162.669 140.743 163.062 141.398 163.586C142.052 164.11 142.584 164.766 142.984 165.552C143.384 166.339 143.585 167.248 143.585 168.281ZM164.125 171.982V164.789H161.053C160.914 165.421 160.76 166.069 160.591 166.732C160.421 167.394 160.233 168.042 160.025 168.674C159.817 169.306 159.578 169.908 159.309 170.478C159.039 171.049 158.743 171.55 158.42 171.982H164.125ZM165.58 177.046V174.387H155.694V177.046H153.292V171.982H155.602C156.171 171.257 156.63 170.567 156.976 169.912C157.322 169.256 157.592 168.632 157.784 168.038C157.977 167.445 158.127 166.878 158.235 166.339C158.343 165.799 158.451 165.283 158.558 164.789H156.664L155.602 162.407H166.481V171.982H167.983V177.046H165.58ZM174.156 164.789L173.139 162.407H184.481V174.387H181.963V164.789H178.614C178.537 165.514 178.437 166.269 178.314 167.055C178.19 167.842 178.025 168.613 177.817 169.368C177.609 170.123 177.347 170.844 177.032 171.531C176.716 172.216 176.335 172.822 175.888 173.346C175.688 173.577 175.472 173.763 175.242 173.901C175.01 174.04 174.779 174.144 174.548 174.213C174.317 174.283 174.098 174.329 173.89 174.352C173.682 174.375 173.509 174.387 173.37 174.387H172.146V171.982H172.77C173.016 171.982 173.286 171.897 173.578 171.727C173.871 171.557 174.187 171.203 174.525 170.664C174.818 170.185 175.053 169.719 175.23 169.264C175.407 168.809 175.553 168.343 175.669 167.865C175.784 167.387 175.873 166.898 175.934 166.396C175.996 165.895 176.05 165.36 176.096 164.789H174.156ZM199.039 164.812L194.997 164.789C194.735 164.789 194.477 164.801 194.223 164.823C193.969 164.847 193.734 164.909 193.519 165.008C193.303 165.109 193.129 165.255 192.999 165.448C192.868 165.641 192.802 165.899 192.802 166.223C192.802 166.547 192.868 166.801 192.999 166.986C193.129 167.171 193.303 167.314 193.519 167.414C193.734 167.514 193.969 167.576 194.223 167.599C194.477 167.622 194.735 167.634 194.997 167.634C195.844 167.634 196.598 167.672 197.26 167.75C197.923 167.827 198.515 168.019 199.039 168.327V164.812ZM194.419 172.491C194.157 172.937 193.896 173.289 193.634 173.542C193.372 173.797 193.095 173.986 192.802 174.11C192.51 174.232 192.202 174.31 191.878 174.34C191.555 174.371 191.208 174.387 190.839 174.387H189.799V171.958H191.024C191.239 171.958 191.47 171.889 191.717 171.75C191.963 171.611 192.256 171.28 192.594 170.756L193.08 169.993C192.063 169.777 191.301 169.349 190.793 168.709C190.284 168.069 190.03 167.264 190.03 166.293C190.03 165.721 190.131 165.201 190.331 164.731C190.531 164.261 190.816 163.852 191.185 163.505C191.555 163.159 191.99 162.889 192.49 162.696C192.991 162.503 193.541 162.407 194.142 162.407H201.464V174.387H199.039V170.872C198.777 170.733 198.542 170.621 198.335 170.536C198.127 170.451 197.903 170.378 197.665 170.316C197.426 170.255 197.156 170.208 196.856 170.178C196.556 170.147 196.198 170.123 195.782 170.108L194.419 172.491ZM216.554 171.982H224.061V174.387H214.198V162.407H223.622V164.789H216.554V167.703C217.077 167.394 217.659 167.202 218.298 167.125C218.937 167.048 219.603 167.009 220.296 167.009H222.051V169.392H220.296C219.742 169.392 219.283 169.403 218.922 169.426C218.56 169.449 218.248 169.484 217.986 169.53C217.724 169.576 217.485 169.646 217.27 169.738C217.055 169.83 216.816 169.946 216.554 170.085V171.982ZM238.712 171.982V164.789H235.639C235.501 165.421 235.347 166.069 235.177 166.732C235.008 167.394 234.819 168.042 234.611 168.674C234.403 169.306 234.165 169.908 233.895 170.478C233.626 171.049 233.329 171.55 233.006 171.982H238.712ZM240.166 177.046V174.387H230.28V177.046H227.878V171.982H230.188C230.758 171.257 231.216 170.567 231.562 169.912C231.909 169.256 232.178 168.632 232.371 168.038C232.563 167.445 232.713 166.878 232.821 166.339C232.929 165.799 233.037 165.283 233.145 164.789H231.25L230.188 162.407H241.068V171.982H242.569V177.046H240.166ZM250.036 171.982H254.309C254.555 171.982 254.79 171.962 255.013 171.923C255.237 171.885 255.433 171.816 255.603 171.716C255.772 171.615 255.91 171.477 256.018 171.299C256.126 171.122 256.18 170.887 256.18 170.594C256.18 170.316 256.126 170.089 256.018 169.912C255.91 169.734 255.772 169.595 255.603 169.495C255.433 169.395 255.233 169.33 255.002 169.299C254.771 169.268 254.54 169.253 254.309 169.253H253.777C253.085 169.253 252.419 169.214 251.779 169.137C251.14 169.06 250.559 168.867 250.036 168.558V171.982ZM260.499 174.387V162.407H262.855V174.387H260.499ZM250.036 166.177C250.297 166.315 250.536 166.431 250.752 166.524C250.967 166.616 251.206 166.685 251.468 166.732C251.729 166.778 252.041 166.813 252.403 166.836C252.765 166.859 253.223 166.87 253.777 166.87H254.309C254.909 166.87 255.468 166.951 255.984 167.114C256.499 167.275 256.946 167.51 257.323 167.819C257.701 168.127 258.001 168.52 258.224 168.998C258.447 169.476 258.559 170.023 258.559 170.64C258.559 171.272 258.447 171.824 258.224 172.294C258.001 172.764 257.701 173.153 257.323 173.462C256.946 173.77 256.499 174.002 255.984 174.156C255.468 174.31 254.909 174.387 254.309 174.387H247.656V162.407H250.036V166.177Z" fill="white"/>
</svg>
