<svg width="38" height="38" viewBox="0 0 38 38" fill="none" xmlns="http://www.w3.org/2000/svg">
<path d="M18.6667 0.0461426C8.35424 0.0461426 0 8.40158 0 18.7128C0 29.024 8.35544 37.3795 18.6667 37.3795C28.9791 37.3795 37.3333 29.024 37.3333 18.7128C37.3333 8.40158 28.9779 0.0461426 18.6667 0.0461426ZM27.835 12.8346L24.7713 27.2718C24.5449 28.2954 23.9355 28.5435 23.0852 28.0618L18.4186 24.6223L16.1677 26.7901C15.9197 27.0381 15.7089 27.2489 15.2272 27.2489L15.5584 22.4991L24.2065 14.6856C24.5834 14.3544 24.1234 14.1666 23.626 14.4978L12.9378 21.2262L8.33135 19.7882C7.33058 19.4727 7.3077 18.7875 8.54211 18.3058L26.5392 11.3654C27.375 11.0643 28.1048 11.5689 27.8338 12.8334L27.835 12.8346Z" fill="white"/>
</svg>
