<svg width="38" height="38" viewBox="0 0 38 38" fill="none" xmlns="http://www.w3.org/2000/svg">
<path d="M19.3334 0.0461426C9.02391 0.0461426 0.666687 8.40337 0.666687 18.7128C0.666687 29.0223 9.02391 37.3795 19.3334 37.3795C29.6428 37.3795 38 29.0223 38 18.7128C38 8.40337 29.6428 0.0461426 19.3334 0.0461426ZM26.5122 21.1064C26.5122 21.1064 28.1631 22.7359 28.5695 23.4923C28.5811 23.5078 28.587 23.5234 28.5909 23.5311C28.7561 23.8092 28.795 24.025 28.7134 24.1864C28.5772 24.4548 28.1106 24.587 27.9511 24.5986H25.0345C24.8322 24.5986 24.4084 24.5461 23.895 24.1923C23.5003 23.9161 23.1114 23.4631 22.7322 23.0217C22.1664 22.3645 21.6764 21.7967 21.1825 21.7967C21.1198 21.7966 21.0574 21.8064 20.9978 21.8259C20.6245 21.9464 20.1461 22.4792 20.1461 23.8986C20.1461 24.342 19.7961 24.5967 19.5492 24.5967H18.2134C17.7584 24.5967 15.3881 24.4373 13.2881 22.2225C10.7175 19.51 8.40363 14.0695 8.38419 14.0189C8.23835 13.667 8.53974 13.4784 8.86835 13.4784H11.8142C12.207 13.4784 12.3353 13.7175 12.4247 13.9295C12.5297 14.1764 12.9147 15.1584 13.5467 16.2628C14.5714 18.0634 15.1995 18.7945 15.7031 18.7945C15.7975 18.7934 15.8903 18.7693 15.9734 18.7245C16.6306 18.3589 16.5081 16.0159 16.4789 15.5298C16.4789 15.4384 16.477 14.4817 16.1406 14.0228C15.8995 13.6903 15.4892 13.5639 15.2403 13.5173C15.341 13.3782 15.4738 13.2655 15.6272 13.1886C16.0784 12.9631 16.8911 12.93 17.6981 12.93H18.1472C19.0222 12.9417 19.2478 12.9981 19.5647 13.0778C20.2064 13.2314 20.22 13.6456 20.1636 15.0631C20.1461 15.4656 20.1286 15.9206 20.1286 16.4573C20.1286 16.5739 20.1228 16.6984 20.1228 16.8306C20.1034 17.552 20.08 18.3706 20.5895 18.707C20.6559 18.7486 20.7327 18.7709 20.8111 18.7711C20.9881 18.7711 21.5209 18.7711 22.9636 16.2959C23.4086 15.4991 23.7952 14.6712 24.1206 13.8186C24.1497 13.7681 24.2353 13.6125 24.3364 13.5523C24.411 13.5142 24.4938 13.4949 24.5775 13.4959H28.0406C28.4178 13.4959 28.6764 13.5523 28.725 13.6981C28.8106 13.9295 28.7095 14.6353 27.1286 16.7761L26.4228 17.7075C24.9897 19.5859 24.9897 19.6811 26.5122 21.1064Z" fill="white"/>
</svg>
