<svg width="38" height="38" viewBox="0 0 38 38" fill="none" xmlns="http://www.w3.org/2000/svg">
<path d="M19 0.0461426C29.3096 0.0461426 37.6666 8.4032 37.6666 18.7128C37.6666 29.0224 29.3096 37.3794 19 37.3794C15.7012 37.3848 12.4604 36.5118 9.61067 34.8501L0.340806 37.3794L2.86454 28.1059C1.20151 25.2552 0.327828 22.0131 0.333339 18.7128C0.333339 8.4032 8.6904 0.0461426 19 0.0461426ZM12.6384 9.93947L12.2651 9.9544C12.0234 9.96912 11.7872 10.0326 11.5707 10.1411C11.3682 10.2557 11.1833 10.3991 11.0219 10.5667C10.7979 10.7776 10.6709 10.9605 10.5347 11.1379C9.84423 12.0356 9.47248 13.1377 9.47813 14.2701C9.48187 15.1848 9.7208 16.0752 10.0941 16.9077C10.8576 18.5915 12.1139 20.3741 13.7715 22.0261C14.1709 22.4237 14.5629 22.8232 14.9848 23.1947C17.0445 25.0081 19.4989 26.3158 22.1528 27.0139L23.2131 27.1763C23.5584 27.1949 23.9037 27.1688 24.2509 27.152C24.7946 27.1239 25.3254 26.9767 25.8059 26.7208C26.0503 26.5949 26.2889 26.4578 26.5208 26.3101C26.5208 26.3101 26.6011 26.2579 26.7541 26.1421C27.0061 25.9555 27.1611 25.8229 27.3701 25.6045C27.5251 25.444 27.6595 25.2555 27.7621 25.0408C27.9077 24.7365 28.0533 24.156 28.1131 23.6725C28.1579 23.3029 28.1448 23.1013 28.1392 22.9763C28.1317 22.7765 27.9656 22.5693 27.7845 22.4816L26.6981 21.9944C26.6981 21.9944 25.0741 21.2869 24.0811 20.8352C23.9771 20.7898 23.8658 20.7639 23.7525 20.7587C23.6248 20.7455 23.4958 20.7599 23.3741 20.8008C23.2524 20.8417 23.1408 20.9082 23.0469 20.9957C23.0376 20.992 22.9125 21.0984 21.5629 22.7336C21.4855 22.8377 21.3788 22.9163 21.2564 22.9596C21.1341 23.0028 21.0016 23.0086 20.876 22.9763C20.7544 22.9437 20.6352 22.9025 20.5195 22.8531C20.288 22.756 20.2077 22.7187 20.0491 22.6515C18.9777 22.1839 17.9858 21.5523 17.1091 20.7792C16.8739 20.5739 16.6555 20.3499 16.4315 20.1333C15.6971 19.43 15.0571 18.6344 14.5275 17.7664L14.4173 17.5891C14.3382 17.4699 14.2743 17.3414 14.2269 17.2064C14.156 16.932 14.3408 16.7117 14.3408 16.7117C14.3408 16.7117 14.7944 16.2152 15.0053 15.9464C15.2107 15.6851 15.3843 15.4312 15.4963 15.2501C15.7165 14.8955 15.7856 14.5315 15.6699 14.2496C15.1472 12.9728 14.6059 11.7016 14.0496 10.4397C13.9395 10.1896 13.6128 10.0104 13.316 9.97494C13.2152 9.96374 13.1144 9.95254 13.0136 9.94507C12.7629 9.93262 12.5117 9.93511 12.2613 9.95254L12.6365 9.9376L12.6384 9.93947Z" fill="white"/>
</svg>
