<svg width="98" height="97" viewBox="0 0 98 97" fill="none" xmlns="http://www.w3.org/2000/svg">
<g id="Vector" filter="url(#filter0_d_164_1273)">
<path d="M49 0C26.3563 0 8 18.3563 8 41C8 63.6437 26.3563 82 49 82C71.6437 82 90 63.6437 90 41C90 18.3563 71.6437 0 49 0ZM28.3348 17.3219L35.632 19.6141C36.598 19.9314 37.2414 20.8285 37.3536 21.7462L37.764 25.765L70.8063 29.4536C72.2251 29.7284 73.2221 31.0095 73.0234 32.3264L70.9714 43.8876C70.7103 45.0969 69.7087 45.9258 68.5941 45.9395H39.2405L38.6649 49.2178H66.5421C67.9998 49.2691 69.0675 50.3791 69.0846 51.6752C69.0241 53.1538 67.8324 54.1216 66.5421 54.1376H35.712C34.157 54.009 33.0155 52.7767 33.2546 51.2697L34.5659 44.0527L32.5139 23.8783L26.8584 22.0766C26.2024 21.8579 25.7099 21.4466 25.382 20.8453C24.7613 19.5448 25.341 18.1048 26.448 17.482C27.0798 17.1536 27.6969 17.1126 28.3348 17.3219ZM39.4457 55.5542C41.5685 55.5542 43.2895 57.2751 43.2895 59.3979C43.2895 61.5207 41.5685 63.2417 39.4457 63.2417C37.323 63.2417 35.602 61.5207 35.602 59.3979C35.602 57.2751 37.3229 55.5542 39.4457 55.5542ZM62.0077 55.5542C64.1304 55.5542 65.8514 57.2751 65.8514 59.3979C65.8514 61.5207 64.1304 63.2417 62.0077 63.2417C59.8849 63.2417 58.1639 61.5207 58.1639 59.3979C58.1639 57.2751 59.8849 55.5542 62.0077 55.5542Z" fill="white"/>
</g>
<defs>
<filter id="filter0_d_164_1273" x="0.545455" y="0" width="96.9091" height="96.9091" filterUnits="userSpaceOnUse" color-interpolation-filters="sRGB">
<feFlood flood-opacity="0" result="BackgroundImageFix"/>
<feColorMatrix in="SourceAlpha" type="matrix" values="0 0 0 0 0 0 0 0 0 0 0 0 0 0 0 0 0 0 127 0" result="hardAlpha"/>
<feOffset dy="7.45455"/>
<feGaussianBlur stdDeviation="3.72727"/>
<feComposite in2="hardAlpha" operator="out"/>
<feColorMatrix type="matrix" values="0 0 0 0 0 0 0 0 0 0 0 0 0 0 0 0 0 0 0.05 0"/>
<feBlend mode="normal" in2="BackgroundImageFix" result="effect1_dropShadow_164_1273"/>
<feBlend mode="normal" in="SourceGraphic" in2="effect1_dropShadow_164_1273" result="shape"/>
</filter>
</defs>
</svg>
