<svg width="23" height="14" viewBox="0 0 23 14" fill="none" xmlns="http://www.w3.org/2000/svg">
<path d="M22.5078 0.945609C22.1926 0.630464 21.7651 0.453425 21.3193 0.453425C20.8736 0.453425 20.4461 0.630463 20.1308 0.945609L11.8097 9.26672L3.48862 0.945607C3.17157 0.639394 2.74694 0.469955 2.30618 0.473785C1.86541 0.477615 1.44379 0.654408 1.13211 0.966084C0.820438 1.27776 0.643647 1.69939 0.639817 2.14015C0.635987 2.58091 0.805425 3.00554 1.11164 3.32259L10.6212 12.8322C10.9365 13.1473 11.364 13.3244 11.8097 13.3244C12.2555 13.3244 12.683 13.1473 12.9982 12.8322L22.5078 3.32259C22.823 3.00735 23 2.57985 23 2.1341C23 1.68835 22.823 1.26085 22.5078 0.945609Z" fill="black"/>
</svg>
