<svg width="52" height="52" viewBox="0 0 52 52" fill="none" xmlns="http://www.w3.org/2000/svg">
<g filter="url(#filter0_d_30_250)">
<path d="M26 0C13.8497 0 4 9.84973 4 22C4 34.1503 13.8497 44 26 44C38.1503 44 48 34.1503 48 22C48 9.84973 38.1503 0 26 0ZM14.9114 9.29467L18.8269 10.5247C19.3453 10.6949 19.6905 11.1763 19.7507 11.6687L19.9709 13.8251L37.7009 15.8044C38.4622 15.9518 38.9972 16.6392 38.8906 17.3459L37.7895 23.5494C37.6494 24.1983 37.112 24.6431 36.5139 24.6505H20.7632L20.4543 26.4095H35.4128C36.195 26.4371 36.7679 27.0327 36.7771 27.7281C36.7447 28.5215 36.1052 29.0408 35.4128 29.0494H18.8699C18.0355 28.9804 17.4229 28.3192 17.5513 27.5106L18.2549 23.638L17.1538 12.8127L14.1191 11.846C13.7671 11.7286 13.5029 11.5079 13.3269 11.1853C12.9939 10.4874 13.3049 9.7148 13.8989 9.38058C14.238 9.20436 14.5691 9.1824 14.9114 9.29467ZM20.8733 29.8096C22.0124 29.8096 22.9358 30.733 22.9358 31.8721C22.9358 33.0111 22.0124 33.9346 20.8733 33.9346C19.7343 33.9346 18.8108 33.0111 18.8108 31.8721C18.8108 30.733 19.7342 29.8096 20.8733 29.8096ZM32.9797 29.8096C34.1188 29.8096 35.0422 30.733 35.0422 31.8721C35.0422 33.0111 34.1188 33.9346 32.9797 33.9346C31.8407 33.9346 30.9172 33.0111 30.9172 31.8721C30.9172 30.733 31.8407 29.8096 32.9797 29.8096Z" fill="black"/>
</g>
<defs>
<filter id="filter0_d_30_250" x="0" y="0" width="52" height="52" filterUnits="userSpaceOnUse" color-interpolation-filters="sRGB">
<feFlood flood-opacity="0" result="BackgroundImageFix"/>
<feColorMatrix in="SourceAlpha" type="matrix" values="0 0 0 0 0 0 0 0 0 0 0 0 0 0 0 0 0 0 127 0" result="hardAlpha"/>
<feOffset dy="4"/>
<feGaussianBlur stdDeviation="2"/>
<feComposite in2="hardAlpha" operator="out"/>
<feColorMatrix type="matrix" values="0 0 0 0 0 0 0 0 0 0 0 0 0 0 0 0 0 0 0.25 0"/>
<feBlend mode="normal" in2="BackgroundImageFix" result="effect1_dropShadow_30_250"/>
<feBlend mode="normal" in="SourceGraphic" in2="effect1_dropShadow_30_250" result="shape"/>
</filter>
</defs>
</svg>
