<svg width="173" height="89" viewBox="0 0 173 89" fill="none" xmlns="http://www.w3.org/2000/svg">
<g id="Group 131">
<path id="Vector" d="M21.1537 62.663C21.8908 62.663 22.5754 62.5256 23.2085 62.2513C23.8413 61.977 24.3988 61.608 24.8803 61.1353C25.362 60.6625 25.74 60.1045 26.014 59.466C26.2879 58.8227 26.425 58.1462 26.425 57.4276C26.425 56.6902 26.2879 56.0089 26.014 55.3751C25.74 54.7461 25.362 54.1881 24.8803 53.7058C24.3988 53.2236 23.8413 52.8499 23.2085 52.5756C22.5754 52.3014 21.8908 52.1639 21.1537 52.1639H16.7045V63.5236C17.3655 63.1215 18.0741 62.8757 18.8296 62.7903C19.5858 62.7056 20.3602 62.663 21.1537 62.663ZM9.22271 62.663C10.1859 62.663 11.0082 62.7102 11.6881 62.8046C12.3684 62.8993 13.0298 63.1404 13.6717 63.5236V52.1639H9.22271C8.48558 52.1639 7.80096 52.3014 7.16789 52.5756C6.53494 52.8499 5.97755 53.2236 5.49595 53.7058C5.01435 54.1881 4.63622 54.7461 4.3624 55.3751C4.08846 56.0089 3.95125 56.6902 3.95125 57.4276C3.95125 58.1462 4.08846 58.8227 4.3624 59.466C4.63622 60.1045 5.01435 60.6625 5.49595 61.1353C5.97755 61.608 6.53494 61.977 7.16789 62.2513C7.80096 62.5256 8.48558 62.663 9.22271 62.663ZM21.1537 65.784C20.2278 65.784 19.4154 65.8457 18.7167 65.9682C18.0173 66.0916 17.3465 66.323 16.7045 66.6636V70.0403H13.6717V66.6636C12.9352 66.2283 12.2076 65.9729 11.4898 65.8974C10.7716 65.8221 10.016 65.784 9.22271 65.784C8.05126 65.784 6.9461 65.5665 5.90663 65.1314C4.86764 64.6964 3.95125 64.0958 3.15781 63.3389C2.36436 62.5822 1.73617 61.6981 1.27346 60.6814C0.810154 59.669 0.578857 58.5814 0.578857 57.4276C0.578857 56.2737 0.810154 55.1815 1.27346 54.1596C1.73617 53.1336 2.36436 52.2446 3.15781 51.4881C3.95125 50.7311 4.86764 50.1305 5.90663 49.6955C6.9461 49.2601 8.05126 49.0427 9.22271 49.0427H13.6717V48.0215H16.7045V49.0427H21.1537C22.3061 49.0427 23.3925 49.2601 24.4129 49.6955C25.4331 50.1305 26.3209 50.7311 27.0766 51.4881C27.8326 52.2446 28.4278 53.1336 28.8621 54.1596C29.2969 55.1815 29.5141 56.2737 29.5141 57.4276C29.5141 58.5814 29.2969 59.669 28.8621 60.6814C28.4278 61.6981 27.8326 62.5822 27.0766 63.3389C26.3209 64.0958 25.4331 64.6964 24.4129 65.1314C23.3925 65.5665 22.3061 65.784 21.1537 65.784ZM37.5418 48.5037H40.9426L51.1169 70.0403H47.6594L46.2707 66.9475H39.8373C38.8737 66.9475 38.0188 67.0137 37.2726 67.1459C36.5266 67.2785 35.8888 67.4485 35.3598 67.6565C34.8308 67.8651 34.4056 68.0918 34.0844 68.3377C33.763 68.5837 33.5459 68.8199 33.4323 69.047L32.8941 70.0403H29.5495L38.7038 51.1143L37.5418 48.5037ZM44.8818 63.8263L40.2626 54.8882L35.5864 65.0182C35.9646 64.6964 36.5875 64.4175 37.4567 64.1808C38.3259 63.9443 39.4972 63.8263 40.9709 63.8263H44.8818ZM59.3141 56.7843C59.9565 57.1249 60.618 57.3566 61.2978 57.4702C61.9781 57.5834 62.6585 57.6403 63.3384 57.6403H66.9662C68.0051 57.6403 68.9689 57.7682 69.8564 58.0234C70.7444 58.2789 71.5148 58.6716 72.1662 59.2107C72.8181 59.7497 73.3234 60.4399 73.6825 61.2774C74.0416 62.1189 74.2209 63.112 74.2209 64.2658C74.2209 65.3203 74.0085 66.2142 73.5832 66.9379C73.1584 67.6661 72.5963 68.2619 71.9065 68.7258C71.2171 69.1842 70.4375 69.5201 69.5641 69.7282C68.695 69.9359 67.8259 70.0403 66.9567 70.0403H56.2252V48.8727H70.5368V51.9939H59.3141V56.7843ZM59.3141 66.919H67.2591C67.6745 66.919 68.1139 66.8716 68.5719 66.7769C69.0346 66.6827 69.4553 66.5215 69.8333 66.2949C70.2062 66.0677 70.5179 65.7555 70.7634 65.3583C71.009 64.9613 71.132 64.4596 71.132 63.8548C71.132 63.2303 71.009 62.7197 70.7634 62.3222C70.5179 61.9248 70.1967 61.6128 69.8049 61.3857C69.4079 61.1588 68.9594 60.9983 68.4584 60.9035C67.9626 60.8089 67.4573 60.7616 66.9472 60.7616H63.3289C62.6302 60.7616 61.9498 60.7147 61.279 60.62C60.6085 60.5251 59.9565 60.2888 59.3141 59.9102V66.919ZM90.7217 57.9241C92.8001 57.9241 93.839 56.9216 93.839 54.9167C93.839 53.8385 93.5747 53.0814 93.0457 52.6467C92.5167 52.2113 91.7421 51.9939 90.7217 51.9939H82.9565L82.9612 58.7754C83.6038 58.3973 84.2604 58.1605 84.9308 58.0662C85.6017 57.9715 86.2868 57.9241 86.9855 57.9241H90.7217ZM79.8675 70.0403V48.8727H90.7406C91.6666 48.8727 92.5119 49.0098 93.2817 49.284C94.0471 49.5581 94.6988 49.9555 95.2371 50.4758C95.7807 50.9959 96.1962 51.6296 96.489 52.3773C96.7817 53.1242 96.9286 53.9707 96.9286 54.9167C96.9286 55.8621 96.7817 56.709 96.489 57.4562C96.1962 58.2031 95.7807 58.8463 95.2371 59.3854C94.6988 59.9244 94.0471 60.3363 93.277 60.62C92.5119 60.9035 91.6666 61.0453 90.7358 61.0453H86.9903C86.3057 61.0453 85.6254 61.1022 84.9451 61.2157C84.2651 61.3288 83.599 61.5562 82.9565 61.8963V70.0403H79.8675ZM118.077 48.8727H121.166V70.0403H118.077V53.7247L105.664 70.0403H102.575V48.8727H105.664V65.1883L118.077 48.8727ZM131.602 70.0403H128.513V48.8727H131.602V57.6119H133.019C133.68 57.6119 134.351 57.5603 135.031 57.4562C135.711 57.3519 136.363 57.1296 136.987 56.7843L142.343 48.8727H146.056L139.112 58.8322L142.91 64.5354C143.25 65.065 143.58 65.4862 143.902 65.7983C144.223 66.1104 144.525 66.3515 144.809 66.5215C145.092 66.6921 145.366 66.8007 145.63 66.8481C145.895 66.8954 146.15 66.919 146.396 66.919C146.509 66.919 146.622 66.9143 146.736 66.9049C146.849 66.8954 146.963 66.8905 147.076 66.8905V70.0403H145.971C145.479 70.0403 145.011 70.0118 144.568 69.955C144.124 69.8982 143.685 69.7611 143.25 69.5437C142.815 69.3258 142.371 68.9951 141.918 68.5503C141.465 68.1062 140.992 67.4865 140.501 66.6921L136.448 60.1941C135.957 60.4023 135.452 60.5442 134.932 60.62C134.413 60.6955 133.898 60.7331 133.388 60.7331H131.602V70.0403ZM158.759 48.5037H162.159L172.334 70.0403H168.876L167.488 66.9475H161.054C160.09 66.9475 159.236 67.0137 158.49 67.1459C157.743 67.2785 157.106 67.4485 156.577 67.6565C156.048 67.8651 155.622 68.0918 155.301 68.3377C154.98 68.5837 154.763 68.8199 154.649 69.047L154.111 70.0403H150.767L159.921 51.1143L158.759 48.5037ZM166.099 63.8263L161.48 54.8882L156.803 65.0182C157.181 64.6964 157.805 64.4175 158.674 64.1808C159.543 63.9443 160.714 63.8263 162.188 63.8263H166.099Z" fill="black"/>
<path id="Vector_2" fill-rule="evenodd" clip-rule="evenodd" d="M102.302 2.12503C102.522 0.930414 101.922 0.545396 101.524 0.871729C100.953 1.33979 99.8252 2.4851 99.2213 3.07873L91.3519 10.9102C90.9751 11.2932 90.6778 11.5831 90.2221 12.0354C88.3639 13.8794 86.496 15.8486 84.6649 17.6233C84.2739 18.0021 83.9368 18.3841 83.5489 18.7614C83.2018 19.099 82.7767 19.5243 82.4258 19.8956C82.2063 20.128 82.0341 20.2892 81.8474 20.4668L69.0599 33.4167C68.6821 33.7969 68.3581 34.1037 68.1826 34.7951C67.8405 36.144 68.672 37.044 69.5457 37.7855C69.8991 38.0857 70.5917 38.3914 71.2509 38.3108C72.404 38.1702 72.7307 37.6249 73.2899 36.9891L74.328 35.7724C74.5134 35.5536 74.6495 35.3887 74.8349 35.1726L78.9673 30.328C79.815 29.3424 81.2668 27.5637 82.0706 26.7086C82.2629 26.5043 82.3891 26.299 82.5915 26.0804C83.0845 25.5483 83.6126 24.8661 84.1205 24.2918C84.8186 23.5026 85.4892 22.7054 86.1745 21.8805C86.3715 21.6434 86.4663 21.4497 86.8265 21.3795C87.6967 21.2098 88.5584 21.3517 89.6039 20.7969C90.1958 20.4832 91.4158 19.1501 91.8821 18.6081C91.9829 18.4911 92.0619 18.446 92.1708 18.3249C92.2753 18.2081 92.3459 18.1364 92.4441 18.0208C92.6244 17.8087 92.7974 17.6358 92.9714 17.4418C93.5956 16.746 95.4537 14.5547 96.0111 13.762C96.6129 12.9061 97.3222 12.0611 97.902 11.1407C98.1866 10.6889 98.5238 10.2211 98.7965 9.77717C100.17 7.54131 101.815 4.76765 102.302 2.12503ZM88.5266 25.1548C90.887 27.882 93.1325 30.6429 95.5127 33.3378C95.867 33.739 96.1527 34.0728 96.5442 34.4724C97.2978 35.2414 97.8915 35.903 98.7345 36.613C99.4504 37.2163 100.375 37.9631 101.454 38.2311C102.818 38.5699 103.784 37.721 104.184 36.8557C104.722 35.691 103.922 34.3877 103.415 33.6537C102.085 31.7263 99.7691 29.8142 97.9977 28.2389C97.6136 27.8974 97.2353 27.5871 96.8332 27.2376C95.3331 25.9336 93.6702 24.5968 92.1377 23.2647C91.7481 22.9258 91.3538 22.5999 90.9746 22.2573C89.9268 21.3097 90.2055 21.5153 89.6946 21.7295C88.5279 22.218 87.2073 22.1389 87.0063 22.267C86.902 22.3337 86.6541 22.7016 86.519 22.8277L88.5266 25.1548ZM82.2693 18.8076C82.6472 18.353 84.3144 16.7625 84.856 16.181C84.1713 14.8613 84.4699 14.6425 84.5613 13.5819C84.6881 12.107 84.3973 10.468 83.3456 9.45464C83.18 9.29521 82.9901 9.08328 82.8186 8.92017C82.6293 8.73972 82.4613 8.58066 82.2793 8.39747C81.6638 7.77819 80.7373 6.97857 80.032 6.35703C78.4675 4.97804 76.4407 3.3295 74.7785 1.96905C74.5766 1.80369 74.3667 1.6363 74.1803 1.46274L73.0436 0.475187C72.6243 0.0972965 72.2149 -0.232838 71.5681 0.217399C71.0917 0.548722 70.9934 1.20662 71.4932 1.62977C72.66 2.61708 74.788 4.6504 75.9314 5.76982L78.1434 7.8478C78.7721 8.45307 80.2656 9.36851 79.4022 10.3613C79.27 10.5131 78.9834 10.6975 78.7212 10.7408C78.2741 10.8149 78.127 10.7256 77.8963 10.485C75.8578 8.35767 73.524 6.17242 71.468 4.04442C71.1094 3.67342 70.1843 2.62409 69.7585 2.56196C68.9728 2.44756 68.1083 3.39413 69.0468 4.3009C69.4208 4.66204 69.7367 4.9999 70.1088 5.36116L76.5411 11.7975C76.7725 12.0259 76.8709 12.0824 76.8278 12.5663C76.768 13.2385 75.9573 14.0844 74.9899 13.2192C74.6463 12.9117 73.4874 11.5623 72.924 10.9951C71.9557 10.0202 70.7829 8.68591 69.8042 7.70132L67.7598 5.45667C67.2736 4.8994 66.6832 4.99111 66.3271 5.45988C65.8707 6.06063 66.154 6.49507 66.5232 6.91359L70.4403 11.5755C71.6724 13.0375 73.1086 14.8126 74.4333 16.1645C75.164 16.9103 75.7948 17.7129 76.7693 18.1163C77.6275 18.4717 78.6559 18.5573 79.6158 18.4979C80.5825 18.4379 80.9069 18.0542 82.2693 18.8076Z" fill="black"/>
<path id="Vector_3" fill-rule="evenodd" clip-rule="evenodd" d="M51.8765 20.9706H70.7027V23.0909H51.8765V20.9706Z" fill="black"/>
<path id="Vector_4" fill-rule="evenodd" clip-rule="evenodd" d="M103.884 20.9706H122.711V23.0909H103.884V20.9706Z" fill="black"/>
<path id="Vector_5" d="M40.4183 82.6041V87.6627H39.106V84.1391L36.9804 86.9767L34.8549 84.1391V87.6627H33.5425V82.6041L32.9501 81.639H34.4136L36.9804 85.0463L39.5473 81.639H41.0108L40.4183 82.6041ZM44.6955 86.4534H48.4702V87.6627H43.5107V81.639H48.2495V82.8369H44.6955V84.302C44.9587 84.1468 45.2511 84.05 45.5724 84.0112C45.8938 83.9724 46.2286 83.9531 46.5771 83.9531H47.4597V85.151H46.5771C46.2983 85.151 46.0679 85.1567 45.886 85.1682C45.704 85.1799 45.5472 85.1975 45.4156 85.2207C45.284 85.2439 45.1639 85.2788 45.0555 85.3254C44.9472 85.3717 44.8271 85.4299 44.6955 85.4997V86.4534ZM56.6382 86.9882C56.3053 87.2751 55.9257 87.4902 55.5 87.6337C55.0741 87.7771 54.6288 87.8488 54.1644 87.8488C53.7073 87.8488 53.266 87.7771 52.8401 87.6337C52.4144 87.4902 52.0369 87.2809 51.7078 87.0058C51.3787 86.7304 51.1154 86.3934 50.918 85.9939C50.7206 85.5948 50.6217 85.1394 50.6217 84.6277C50.6217 84.1159 50.7225 83.6624 50.9237 83.2669C51.1251 82.8717 51.3922 82.5382 51.7252 82.267C52.0582 81.9955 52.4375 81.7901 52.8635 81.6504C53.2893 81.5111 53.7267 81.4412 54.1759 81.4412C54.6173 81.4412 55.0335 81.4973 55.4245 81.6098C55.8155 81.7223 56.1775 81.9025 56.5105 82.1507L55.7091 83.0811C55.4845 82.926 55.2444 82.8154 54.9889 82.7497C54.7334 82.6836 54.4624 82.6507 54.1759 82.6507C53.8817 82.6507 53.5991 82.6915 53.328 82.7727C53.0571 82.8541 52.8132 82.9763 52.5962 83.1392C52.3796 83.3018 52.2072 83.5092 52.0795 83.7612C51.9517 84.0133 51.8879 84.3098 51.8879 84.6508C51.8879 84.9921 51.9536 85.2867 52.0852 85.5346C52.2168 85.7828 52.3911 85.9883 52.6079 86.1509C52.8247 86.3137 53.0706 86.436 53.3454 86.5173C53.6204 86.5985 53.901 86.6395 54.1875 86.6395C54.5127 86.6395 54.8282 86.5832 55.1341 86.4709C55.44 86.3584 55.7091 86.1975 55.9413 85.9883L56.6382 86.9882ZM61.647 82.8369V87.6627H60.4507V82.8369H58.2671V81.639H63.9118V82.8369H61.647ZM71.5107 84.6042C71.5107 84.2711 71.4449 83.9822 71.3133 83.7379C71.1816 83.4937 71.0093 83.2923 70.7926 83.1332C70.5757 82.9743 70.3318 82.858 70.0569 82.7845C69.7821 82.7108 69.5033 82.6739 69.2169 82.6739C68.9225 82.6739 68.6399 82.7126 68.365 82.7903C68.0921 82.8677 67.8483 82.9881 67.6354 83.1506C67.4224 83.3135 67.252 83.519 67.1204 83.7672C66.9888 84.0151 66.9229 84.3098 66.9229 84.6508C66.9229 84.9921 66.9888 85.2867 67.1204 85.5346C67.252 85.7828 67.4243 85.9883 67.6411 86.1509C67.8579 86.3137 68.1018 86.4339 68.3767 86.5116C68.6517 86.589 68.9343 86.6279 69.2284 86.6279C69.515 86.6279 69.7918 86.5832 70.0629 86.494C70.3337 86.4049 70.5757 86.2749 70.7926 86.1043C71.0093 85.934 71.1816 85.7227 71.3133 85.4708C71.4449 85.2186 71.5107 84.9299 71.5107 84.6042ZM72.7768 84.5928C72.7768 85.1044 72.6761 85.5617 72.4748 85.965C72.2734 86.368 72.0062 86.7093 71.6773 86.9882C71.3481 87.2675 70.9687 87.4806 70.5371 87.6278C70.1073 87.7751 69.662 87.8488 69.2051 87.8488C68.7484 87.8488 68.305 87.7771 67.8793 87.6337C67.4534 87.4902 67.0739 87.2809 66.7448 87.0058C66.4158 86.7304 66.1505 86.3934 65.9531 85.9939C65.7557 85.5948 65.6568 85.1394 65.6568 84.6277C65.6568 84.1159 65.7576 83.6624 65.9588 83.2669C66.1602 82.8717 66.4292 82.5382 66.7622 82.267C67.0952 81.9955 67.4765 81.7901 67.9024 81.6504C68.3282 81.5111 68.7677 81.4412 69.2169 81.4412C69.666 81.4412 70.1073 81.5073 70.5371 81.639C70.9687 81.7707 71.3481 81.9683 71.6773 82.2321C72.0062 82.4956 72.2734 82.8252 72.4748 83.2205C72.6761 83.6159 72.7768 84.0732 72.7768 84.5928ZM83.1051 86.4534V82.8369H81.5602C81.4906 83.1545 81.4132 83.4801 81.3279 83.8136C81.2428 84.1468 81.1479 84.4726 81.0434 84.7903C80.9389 85.1082 80.8189 85.4105 80.6834 85.6975C80.5478 85.9844 80.3988 86.2362 80.2362 86.4534H83.1051ZM83.8367 89V87.6627H78.8657V89H77.6577V86.4534H78.8193C79.1057 86.0889 79.3361 85.742 79.5102 85.4126C79.6845 85.0831 79.8201 84.7691 79.9168 84.4705C80.0136 84.1721 80.089 83.8871 80.1433 83.6159C80.1975 83.3446 80.2518 83.0849 80.3059 82.8369H79.3534L78.8193 81.639H84.2898V86.4534H85.0447V89H83.8367ZM88.1486 82.8369L87.6377 81.639H93.3405V87.6627H92.0745V82.8369H90.3904C90.3517 83.2011 90.3013 83.581 90.2394 83.9763C90.1774 84.3718 90.0942 84.7593 89.9896 85.1394C89.8852 85.519 89.7536 85.8815 89.5947 86.2267C89.436 86.5715 89.2444 86.8758 89.0199 87.1395C88.9191 87.2557 88.8108 87.3489 88.6947 87.4186C88.5784 87.4884 88.4623 87.5406 88.3462 87.5755C88.23 87.6104 88.1198 87.6337 88.0151 87.6454C87.9107 87.657 87.8235 87.6627 87.7538 87.6627H87.1383V86.4534H87.4518C87.5758 86.4534 87.7112 86.4107 87.8584 86.3254C88.0055 86.24 88.1642 86.0619 88.3345 85.7906C88.4816 85.5502 88.5997 85.3157 88.6888 85.0869C88.7779 84.8583 88.8514 84.6236 88.9095 84.3835C88.9676 84.143 89.012 83.897 89.043 83.6448C89.0741 83.3931 89.1011 83.1236 89.1243 82.8369H88.1486ZM100.661 82.8484L98.628 82.8369C98.4964 82.8369 98.3667 82.8426 98.2391 82.8541C98.1112 82.8657 97.9932 82.8968 97.8848 82.9471C97.7764 82.9976 97.6892 83.0712 97.6235 83.1682C97.5575 83.2651 97.5247 83.3948 97.5247 83.5578C97.5247 83.7206 97.5575 83.8484 97.6235 83.9414C97.6892 84.0344 97.7764 84.1063 97.8848 84.1567C97.9932 84.2069 98.1112 84.2381 98.2391 84.2498C98.3667 84.2612 98.4964 84.267 98.628 84.267C99.054 84.267 99.4333 84.2865 99.7663 84.3254C100.099 84.3641 100.397 84.461 100.661 84.6159V82.8484ZM98.3378 86.7093C98.206 86.9339 98.0744 87.1105 97.9428 87.2381C97.8112 87.3661 97.6717 87.4612 97.5247 87.5234C97.3776 87.5851 97.2228 87.624 97.0601 87.6394C96.8975 87.655 96.7232 87.6627 96.5374 87.6627H96.0147V86.4417H96.6303C96.7388 86.4417 96.8549 86.4069 96.9789 86.3371C97.1027 86.2672 97.2498 86.1005 97.4201 85.8371L97.6641 85.4532C97.153 85.3448 96.7697 85.1295 96.5143 84.8079C96.2586 84.486 96.1309 84.081 96.1309 83.5928C96.1309 83.3056 96.1813 83.0442 96.2819 82.8076C96.3826 82.5712 96.5258 82.3658 96.7116 82.1912C96.8975 82.0169 97.1162 81.8814 97.3678 81.7844C97.6195 81.6874 97.8963 81.639 98.1983 81.639H101.88V87.6627H100.661V85.8953C100.529 85.8254 100.411 85.7691 100.306 85.7265C100.202 85.6839 100.09 85.647 99.9696 85.616C99.8495 85.5851 99.714 85.5617 99.563 85.5462C99.4121 85.5308 99.232 85.519 99.0229 85.5114L98.3378 86.7093ZM109.468 86.4534H113.242V87.6627H108.283V81.639H113.022V82.8369H109.468V84.302C109.731 84.1468 110.023 84.05 110.345 84.0112C110.666 83.9724 111.001 83.9531 111.349 83.9531H112.232V85.151H111.349C111.07 85.151 110.84 85.1567 110.658 85.1682C110.476 85.1799 110.319 85.1975 110.188 85.2207C110.056 85.2439 109.936 85.2788 109.828 85.3254C109.719 85.3717 109.599 85.4299 109.468 85.4997V86.4534ZM120.609 86.4534V82.8369H119.064C118.994 83.1545 118.917 83.4801 118.832 83.8136C118.747 84.1468 118.652 84.4726 118.547 84.7903C118.443 85.1082 118.323 85.4105 118.187 85.6975C118.052 85.9844 117.903 86.2362 117.74 86.4534H120.609ZM121.341 89V87.6627H116.37V89H115.162V86.4534H116.323C116.61 86.0889 116.84 85.742 117.014 85.4126C117.188 85.0831 117.324 84.7691 117.421 84.4705C117.517 84.1721 117.593 83.8871 117.647 83.6159C117.701 83.3446 117.756 83.0849 117.81 82.8369H116.857L116.323 81.639H121.794V86.4534H122.549V89H121.341ZM126.303 86.4534H128.452C128.576 86.4534 128.694 86.4435 128.806 86.4241C128.918 86.4049 129.017 86.37 129.102 86.3197C129.187 86.2692 129.257 86.1995 129.311 86.1103C129.365 86.0211 129.392 85.9029 129.392 85.7557C129.392 85.616 129.365 85.5018 129.311 85.4126C129.257 85.3234 129.187 85.2535 129.102 85.2032C129.017 85.1528 128.916 85.12 128.8 85.1044C128.684 85.0889 128.568 85.0813 128.452 85.0813H128.185C127.836 85.0813 127.501 85.0618 127.18 85.0231C126.859 84.9842 126.566 84.8873 126.303 84.7321V86.4534ZM131.565 87.6627V81.639H132.749V87.6627H131.565ZM126.303 83.5344C126.435 83.6043 126.555 83.6624 126.663 83.7089C126.771 83.7555 126.891 83.7903 127.023 83.8136C127.155 83.8369 127.311 83.8542 127.493 83.866C127.675 83.8775 127.906 83.8832 128.185 83.8832H128.452C128.754 83.8832 129.034 83.9241 129.294 84.0056C129.553 84.0869 129.778 84.205 129.967 84.3602C130.157 84.5153 130.308 84.7128 130.42 84.9531C130.533 85.1937 130.589 85.4687 130.589 85.779C130.589 86.0967 130.533 86.374 130.42 86.6103C130.308 86.8469 130.157 87.0425 129.967 87.1976C129.778 87.3528 129.553 87.4691 129.294 87.5465C129.034 87.624 128.754 87.6627 128.452 87.6627H125.107V81.639H126.303V83.5344Z" fill="black"/>
</g>
</svg>
