<svg width="195" height="101" viewBox="0 0 195 101" fill="none" xmlns="http://www.w3.org/2000/svg">
<path d="M23.3489 71.112C24.1854 71.112 24.9624 70.956 25.6808 70.6447C26.3989 70.3334 27.0316 69.9147 27.578 69.3783C28.1247 68.8417 28.5537 68.2085 28.8645 67.4839C29.1754 66.7538 29.331 65.9861 29.331 65.1706C29.331 64.3338 29.1754 63.5606 28.8645 62.8414C28.5537 62.1276 28.1247 61.4944 27.578 60.947C27.0316 60.3998 26.3989 59.9757 25.6808 59.6644C24.9624 59.3532 24.1854 59.1973 23.3489 59.1973H18.2999V72.0885C19.05 71.6322 19.8541 71.3533 20.7116 71.2563C21.5696 71.1602 22.4485 71.112 23.3489 71.112ZM9.80931 71.112C10.9024 71.112 11.8356 71.1655 12.6071 71.2727C13.3792 71.3801 14.1297 71.6536 14.8582 72.0885V59.1973H9.80931C8.97279 59.1973 8.19586 59.3532 7.47744 59.6644C6.75915 59.9757 6.12661 60.3998 5.58007 60.947C5.03354 61.4944 4.60443 62.1276 4.29368 62.8414C3.9828 63.5606 3.82709 64.3338 3.82709 65.1706C3.82709 65.9861 3.9828 66.7538 4.29368 67.4839C4.60443 68.2085 5.03354 68.8417 5.58007 69.3783C6.12661 69.9147 6.75915 70.3334 7.47744 70.6447C8.19586 70.956 8.97279 71.112 9.80931 71.112ZM23.3489 74.6538C22.2982 74.6538 21.3763 74.7237 20.5833 74.8627C19.7897 75.0028 19.0284 75.2654 18.2999 75.6519V79.4839H14.8582V75.6519C14.0224 75.158 13.1966 74.8681 12.3821 74.7824C11.567 74.6969 10.7096 74.6538 9.80931 74.6538C8.47991 74.6538 7.22574 74.4069 6.04612 73.9131C4.86704 73.4194 3.82709 72.7379 2.92667 71.8789C2.02625 71.0203 1.31335 70.0169 0.788255 68.8631C0.262482 67.7142 0 66.48 0 65.1706C0 63.8611 0.262482 62.6217 0.788255 61.462C1.31335 60.2976 2.02625 59.2888 2.92667 58.4303C3.82709 57.5713 4.86704 56.8897 6.04612 56.396C7.22574 55.9019 8.47991 55.6552 9.80931 55.6552H14.8582V54.4963H18.2999V55.6552H23.3489C24.6567 55.6552 25.8896 55.9019 27.0477 56.396C28.2053 56.8897 29.2129 57.5713 30.0705 58.4303C30.9284 59.2888 31.6038 60.2976 32.0967 61.462C32.5901 62.6217 32.8366 63.8611 32.8366 65.1706C32.8366 66.48 32.5901 67.7142 32.0967 68.8631C31.6038 70.0169 30.9284 71.0203 30.0705 71.8789C29.2129 72.7379 28.2053 73.4194 27.0477 73.9131C25.8896 74.4069 24.6567 74.6538 23.3489 74.6538ZM41.9467 55.0435H45.806L57.3521 79.4839H53.4284L51.8526 75.9741H44.5517C43.4581 75.9741 42.488 76.0492 41.6412 76.1993C40.7946 76.3497 40.0708 76.5427 39.4705 76.7787C38.8701 77.0154 38.3876 77.2727 38.0231 77.5517C37.6584 77.8309 37.412 78.0989 37.2831 78.3567L36.6723 79.4839H32.8767L43.2653 58.006L41.9467 55.0435ZM50.2763 72.4321L45.0344 62.2888L39.7277 73.7846C40.1568 73.4194 40.8638 73.103 41.8501 72.8343C42.8365 72.5659 44.1658 72.4321 45.8381 72.4321H50.2763ZM66.6546 64.4406C67.3836 64.8271 68.1343 65.0901 68.9057 65.219C69.6778 65.3475 70.4498 65.412 71.2215 65.412H75.3385C76.5174 65.412 77.6111 65.5571 78.6183 65.8468C79.6261 66.1367 80.5003 66.5823 81.2395 67.1941C81.9794 67.8058 82.5527 68.5891 82.9603 69.5395C83.3678 70.4945 83.5713 71.6214 83.5713 72.9309C83.5713 74.1275 83.3302 75.1419 82.8476 75.9632C82.3655 76.7896 81.7277 77.4657 80.9448 77.9922C80.1625 78.5124 79.2777 78.8935 78.2866 79.1297C77.3003 79.3654 76.314 79.4839 75.3277 79.4839H63.1491V55.4622H79.3904V59.0043H66.6546V64.4406ZM66.6546 75.9418H75.6708C76.1422 75.9418 76.6409 75.888 77.1606 75.7806C77.6857 75.6736 78.1631 75.4907 78.592 75.2335C79.0152 74.9757 79.369 74.6214 79.6476 74.1706C79.9263 73.7201 80.0658 73.1507 80.0658 72.4644C80.0658 71.7557 79.9263 71.1763 79.6476 70.7252C79.369 70.2742 79.0044 69.9201 78.5598 69.6624C78.1093 69.4049 77.6004 69.2228 77.0318 69.1152C76.4691 69.0078 75.8958 68.9541 75.3169 68.9541H71.2107C70.4178 68.9541 69.6457 68.9009 68.8844 68.7934C68.1235 68.6857 67.3836 68.4176 66.6546 67.9879V75.9418ZM102.297 65.7341C104.656 65.7341 105.835 64.5964 105.835 62.3212C105.835 61.0976 105.535 60.2384 104.934 59.7451C104.334 59.251 103.455 59.0043 102.297 59.0043H93.4846L93.49 66.7002C94.2192 66.2711 94.9644 66.0024 95.7252 65.8953C96.4865 65.7879 97.264 65.7341 98.057 65.7341H102.297ZM89.9792 79.4839V55.4622H102.318C103.369 55.4622 104.329 55.6178 105.202 55.929C106.071 56.2401 106.81 56.6911 107.421 57.2816C108.038 57.8718 108.509 58.5909 108.842 59.4394C109.174 60.287 109.341 61.2476 109.341 62.3212C109.341 63.394 109.174 64.3551 108.842 65.2031C108.509 66.0506 108.038 66.7807 107.421 67.3924C106.81 68.0041 106.071 68.4715 105.197 68.7934C104.329 69.1152 103.369 69.2761 102.313 69.2761H98.0624C97.2854 69.2761 96.5135 69.3406 95.7414 69.4695C94.9697 69.5979 94.2138 69.8559 93.4846 70.2419V79.4839H89.9792ZM133.341 55.4622H136.846V79.4839H133.341V60.9684L119.254 79.4839H115.749V55.4622H119.254V73.9777L133.341 55.4622ZM148.689 79.4839H145.184V55.4622H148.689V65.3798H150.297C151.048 65.3798 151.809 65.3212 152.581 65.2031C153.353 65.0847 154.093 64.8325 154.8 64.4406L160.879 55.4622H165.092L157.212 66.7646L161.522 73.2368C161.908 73.8378 162.282 74.3158 162.647 74.67C163.012 75.0241 163.355 75.2978 163.676 75.4907C163.998 75.6843 164.309 75.8075 164.609 75.8613C164.909 75.915 165.199 75.9418 165.478 75.9418C165.606 75.9418 165.735 75.9364 165.863 75.9257C165.992 75.915 166.121 75.9094 166.249 75.9094V79.4839H164.995C164.438 79.4839 163.907 79.4515 163.403 79.3871C162.9 79.3226 162.401 79.1671 161.908 78.9204C161.414 78.6731 160.911 78.2978 160.396 77.7931C159.881 77.289 159.346 76.5858 158.788 75.6843L154.189 68.3101C153.631 68.5465 153.058 68.7074 152.468 68.7934C151.879 68.8792 151.294 68.9218 150.715 68.9218H148.689V79.4839ZM179.507 55.0435H183.367L194.913 79.4839H190.989L189.413 75.9741H182.112C181.019 75.9741 180.049 76.0492 179.202 76.1993C178.355 76.3497 177.631 76.5427 177.031 76.7787C176.431 77.0154 175.948 77.2727 175.584 77.5517C175.219 77.8309 174.973 78.0989 174.844 78.3567L174.233 79.4839H170.438L180.826 58.006L179.507 55.0435ZM187.837 72.4321L182.595 62.2888L177.288 73.7846C177.717 73.4194 178.425 73.103 179.411 72.8343C180.397 72.5659 181.726 72.4321 183.399 72.4321H187.837Z" fill="black"/>
<path fill-rule="evenodd" clip-rule="evenodd" d="M115.439 2.41161C115.688 1.05593 115.007 0.618997 114.555 0.98933C113.908 1.5205 112.628 2.82023 111.942 3.4939L103.012 12.3814C102.584 12.816 102.247 13.1449 101.73 13.6582C99.6212 15.7509 97.5014 17.9856 95.4234 19.9995C94.9797 20.4295 94.5971 20.8629 94.1569 21.2911C93.763 21.6742 93.2806 22.1568 92.8824 22.5783C92.6333 22.8419 92.4379 23.0249 92.226 23.2264L77.7144 37.9223C77.2857 38.3539 76.9179 38.702 76.7188 39.4866C76.3305 41.0174 77.2742 42.0387 78.2656 42.8802C78.6667 43.2209 79.4527 43.5678 80.2008 43.4764C81.5094 43.3168 81.8801 42.698 82.5147 41.9765L83.6928 40.5957C83.9031 40.3474 84.0576 40.1602 84.2681 39.915L88.9576 34.4172C89.9196 33.2988 91.5672 31.2802 92.4793 30.3098C92.6976 30.0779 92.8408 29.845 93.0705 29.5969C93.63 28.9931 94.2292 28.2189 94.8057 27.5672C95.5978 26.6716 96.3589 25.7669 97.1366 24.8307C97.3601 24.5616 97.4677 24.3419 97.8764 24.2622C98.864 24.0696 99.8419 24.2307 101.028 23.6011C101.7 23.245 103.085 21.7322 103.614 21.1171C103.728 20.9844 103.818 20.9331 103.941 20.7957C104.06 20.6632 104.14 20.5818 104.252 20.4506C104.456 20.21 104.652 20.0137 104.85 19.7935C105.558 19.0039 107.667 16.5172 108.299 15.6176C108.982 14.6464 109.787 13.6874 110.445 12.6429C110.768 12.1302 111.151 11.5993 111.46 11.0955C113.019 8.55817 114.886 5.41054 115.439 2.41161ZM99.8058 28.5465C102.485 31.6414 105.033 34.7746 107.734 37.8328C108.136 38.2881 108.46 38.6669 108.904 39.1204C109.76 39.9931 110.433 40.7439 111.39 41.5496C112.202 42.2342 113.252 43.0818 114.477 43.3859C116.024 43.7704 117.12 42.807 117.574 41.8251C118.185 40.5033 117.277 39.0243 116.702 38.1913C115.193 36.0041 112.564 33.8341 110.554 32.0465C110.118 31.6589 109.689 31.3068 109.232 30.9101C107.53 29.4303 105.643 27.9132 103.904 26.4016C103.462 26.0169 103.014 25.6472 102.584 25.2584C101.395 24.1829 101.711 24.4163 101.131 24.6594C99.8072 25.2137 98.3087 25.1239 98.0806 25.2694C97.9622 25.345 97.6808 25.7626 97.5275 25.9056L99.8058 28.5465ZM92.7049 21.3435C93.1337 20.8276 95.0257 19.0227 95.6403 18.3628C94.8632 16.8651 95.2021 16.6168 95.3058 15.4132C95.4498 13.7395 95.1198 11.8794 93.9263 10.7295C93.7383 10.5486 93.5228 10.3081 93.3282 10.123C93.1133 9.91817 92.9227 9.73766 92.7162 9.52978C92.0177 8.82699 90.9663 7.91956 90.1659 7.21422C88.3904 5.6493 86.0904 3.77849 84.2041 2.2346C83.9749 2.04694 83.7367 1.85699 83.5251 1.66003L82.2352 0.539322C81.7593 0.11048 81.2948 -0.264167 80.5607 0.246777C80.0201 0.622772 79.9086 1.36937 80.4758 1.84958C81.7999 2.97001 84.2148 5.27748 85.5124 6.54783L88.0226 8.90599C88.7361 9.59287 90.431 10.6317 89.4511 11.7584C89.3011 11.9307 88.9759 12.1399 88.6784 12.1891C88.1709 12.2731 88.004 12.1719 87.7422 11.8987C85.4288 9.48461 82.7804 7.00472 80.4472 4.5898C80.0402 4.16878 78.9904 2.97797 78.5072 2.90746C77.6156 2.77763 76.6345 3.85183 77.6996 4.88086C78.124 5.29069 78.4824 5.6741 78.9047 6.08407L86.2043 13.3883C86.4669 13.6474 86.5785 13.7116 86.5296 14.2607C86.4618 15.0236 85.5418 15.9834 84.4439 15.0016C84.054 14.6527 82.7389 13.1213 82.0995 12.4776C81.0006 11.3713 79.6697 9.8571 78.559 8.73977L76.239 6.19246C75.6872 5.56005 75.0172 5.66413 74.6131 6.1961C74.0952 6.87786 74.4167 7.37087 74.8357 7.84582L79.2809 13.1363C80.6791 14.7955 82.309 16.8098 83.8123 18.344C84.6415 19.1904 85.3574 20.1012 86.4633 20.559C87.4372 20.9624 88.6042 21.0594 89.6935 20.992C90.7906 20.924 91.1587 20.4885 92.7049 21.3435Z" fill="black"/>
<path fill-rule="evenodd" clip-rule="evenodd" d="M58.2141 23.7982H79.5787V26.2043H58.2141V23.7982Z" fill="black"/>
<path fill-rule="evenodd" clip-rule="evenodd" d="M117.234 23.7982H138.599V26.2043H117.234V23.7982Z" fill="black"/>
<path d="M45.2111 93.7418V99.4824H43.7218V95.4837L41.3096 98.7039L38.8975 95.4837V99.4824H37.4082V93.7418L36.7359 92.6466H38.3968L41.3096 96.5133L44.2226 92.6466H45.8834L45.2111 93.7418ZM50.0649 98.11H54.3486V99.4824H48.7204V92.6466H54.0981V94.0059H50.0649V95.6685C50.3637 95.4925 50.6954 95.3826 51.0601 95.3385C51.4248 95.2946 51.8048 95.2726 52.2002 95.2726H53.2019V96.632H52.2002C51.8838 96.632 51.6224 96.6385 51.416 96.6516C51.2095 96.6648 51.0315 96.6848 50.8822 96.7112C50.7328 96.7375 50.5965 96.7771 50.4735 96.83C50.3506 96.8825 50.2143 96.9486 50.0649 97.0277V98.11ZM63.6179 98.7169C63.2401 99.0425 62.8094 99.2867 62.3262 99.4495C61.8429 99.6122 61.3376 99.6935 60.8105 99.6935C60.2919 99.6935 59.7911 99.6122 59.3077 99.4495C58.8246 99.2867 58.3963 99.0491 58.0227 98.7369C57.6493 98.4244 57.3505 98.0419 57.1265 97.5886C56.9024 97.1357 56.7902 96.6188 56.7902 96.0382C56.7902 95.4574 56.9046 94.9427 57.1329 94.4939C57.3614 94.0454 57.6646 93.667 58.0425 93.3592C58.4204 93.0511 58.8509 92.818 59.3343 92.6595C59.8175 92.5014 60.3139 92.4221 60.8236 92.4221C61.3246 92.4221 61.7968 92.4857 62.2406 92.6134C62.6843 92.7411 63.0951 92.9456 63.4729 93.2272L62.5635 94.2831C62.3087 94.107 62.0362 93.9815 61.7463 93.9069C61.4563 93.832 61.1488 93.7946 60.8236 93.7946C60.4898 93.7946 60.1691 93.8409 59.8614 93.9331C59.5539 94.0254 59.2771 94.1641 59.031 94.349C58.7851 94.5335 58.5895 94.7689 58.4445 95.0549C58.2995 95.3409 58.2271 95.6774 58.2271 96.0643C58.2271 96.4517 58.3016 96.786 58.451 97.0674C58.6004 97.349 58.7982 97.5822 59.0442 97.7668C59.2902 97.9515 59.5693 98.0903 59.8811 98.1825C60.1932 98.2748 60.5116 98.3213 60.8368 98.3213C61.2058 98.3213 61.5639 98.2574 61.911 98.13C62.2581 98.0023 62.5635 97.8196 62.8271 97.5822L63.6179 98.7169ZM69.302 94.0059V99.4824H67.9445V94.0059H65.4664V92.6466H71.8722V94.0059H69.302ZM80.4957 96.0115C80.4957 95.6335 80.4211 95.3056 80.2717 95.0284C80.1222 94.7513 79.9267 94.5228 79.6808 94.3422C79.4346 94.1619 79.1578 94.0299 78.8459 93.9464C78.5341 93.8628 78.2177 93.8209 77.8926 93.8209C77.5585 93.8209 77.2378 93.8649 76.9259 93.953C76.6162 94.0409 76.3394 94.1775 76.0978 94.3619C75.8561 94.5467 75.6628 94.78 75.5134 95.0616C75.3641 95.343 75.2894 95.6774 75.2894 96.0643C75.2894 96.4517 75.3641 96.786 75.5134 97.0674C75.6628 97.349 75.8583 97.5822 76.1043 97.7668C76.3503 97.9515 76.6271 98.0879 76.9391 98.1761C77.2512 98.264 77.5719 98.3081 77.9057 98.3081C78.2309 98.3081 78.545 98.2574 78.8526 98.1561C79.16 98.055 79.4346 97.9075 79.6808 97.7139C79.9267 97.5206 80.1222 97.2808 80.2717 96.995C80.4211 96.7088 80.4957 96.3812 80.4957 96.0115ZM81.9324 95.9986C81.9324 96.5792 81.8183 97.0981 81.5898 97.5558C81.3612 98.0131 81.058 98.4004 80.6847 98.7169C80.3112 99.0339 79.8806 99.2757 79.3908 99.4428C78.903 99.6099 78.3978 99.6935 77.8793 99.6935C77.3609 99.6935 76.8578 99.6122 76.3746 99.4495C75.8913 99.2867 75.4607 99.0491 75.0871 98.7369C74.7138 98.4244 74.4128 98.0419 74.1888 97.5886C73.9647 97.1357 73.8525 96.6188 73.8525 96.0382C73.8525 95.4574 73.9668 94.9427 74.1952 94.4939C74.4237 94.0454 74.7291 93.667 75.107 93.3592C75.4848 93.0511 75.9176 92.818 76.4009 92.6595C76.8841 92.5014 77.3829 92.4221 77.8926 92.4221C78.4022 92.4221 78.903 92.497 79.3908 92.6466C79.8806 92.7959 80.3112 93.0203 80.6847 93.3195C81.058 93.6186 81.3612 93.9927 81.5898 94.4412C81.8183 94.89 81.9324 95.4089 81.9324 95.9986ZM93.6534 98.11V94.0059H91.9002C91.8212 94.3664 91.7334 94.7359 91.6366 95.1143C91.5399 95.4925 91.4322 95.8621 91.3137 96.2228C91.1951 96.5835 91.0589 96.9265 90.9051 97.2522C90.7513 97.5778 90.5822 97.8636 90.3977 98.11H93.6534ZM94.4836 101V99.4824H88.8423V101H87.4715V98.11H88.7897C89.1148 97.6964 89.3762 97.3027 89.5738 96.9289C89.7716 96.5549 89.9254 96.1986 90.0351 95.8598C90.145 95.5212 90.2306 95.1978 90.2922 94.89C90.3537 94.5821 90.4153 94.2874 90.4768 94.0059H89.3959L88.7897 92.6466H94.9978V98.11H95.8545V101H94.4836ZM99.3769 94.0059L98.7971 92.6466H105.269V99.4824H103.832V94.0059H101.921C101.877 94.4192 101.82 94.8504 101.75 95.299C101.679 95.7478 101.585 96.1876 101.466 96.6188C101.348 97.0497 101.198 97.461 101.018 97.8528C100.838 98.244 100.62 98.5894 100.366 98.8887C100.251 99.0205 100.128 99.1262 99.9967 99.2054C99.8647 99.2846 99.7328 99.3438 99.6011 99.3835C99.4693 99.4231 99.3442 99.4495 99.2254 99.4627C99.1069 99.4759 99.0079 99.4824 98.9288 99.4824H98.2303V98.11H98.5861C98.7269 98.11 98.8805 98.0616 99.0476 97.9648C99.2145 97.8679 99.3946 97.6658 99.5879 97.3579C99.7548 97.085 99.8888 96.8189 99.9899 96.5592C100.091 96.2999 100.174 96.0335 100.24 95.761C100.306 95.4882 100.357 95.209 100.392 94.9227C100.427 94.6371 100.458 94.3313 100.484 94.0059H99.3769ZM113.576 94.019L111.269 94.0059C111.12 94.0059 110.973 94.0123 110.828 94.0254C110.683 94.0386 110.549 94.074 110.426 94.131C110.303 94.1883 110.204 94.2719 110.129 94.3819C110.054 94.4919 110.017 94.6391 110.017 94.8241C110.017 95.0088 110.054 95.1538 110.129 95.2594C110.204 95.3649 110.303 95.4465 110.426 95.5037C110.549 95.5607 110.683 95.596 110.828 95.6094C110.973 95.6223 111.12 95.6289 111.269 95.6289C111.753 95.6289 112.183 95.651 112.561 95.6951C112.939 95.739 113.277 95.849 113.576 96.0248V94.019ZM110.94 98.4004C110.79 98.6553 110.641 98.8558 110.492 99.0006C110.342 99.1458 110.184 99.2538 110.017 99.3243C109.85 99.3944 109.675 99.4385 109.49 99.456C109.305 99.4737 109.108 99.4824 108.897 99.4824H108.304V98.0968H109.002C109.125 98.0968 109.257 98.0573 109.398 97.978C109.538 97.8988 109.705 97.7096 109.898 97.4106L110.175 96.975C109.595 96.8519 109.16 96.6076 108.871 96.2427C108.58 95.8774 108.435 95.4178 108.435 94.8637C108.435 94.5379 108.493 94.2411 108.607 93.9727C108.721 93.7044 108.884 93.4713 109.094 93.2732C109.305 93.0754 109.554 92.9216 109.839 92.8116C110.125 92.7014 110.439 92.6466 110.782 92.6466H114.96V99.4824H113.576V97.4767C113.427 97.3974 113.293 97.3335 113.174 97.2851C113.055 97.2368 112.928 97.1949 112.792 97.1597C112.655 97.1247 112.502 97.0981 112.33 97.0806C112.159 97.063 111.955 97.0497 111.717 97.0411L110.94 98.4004ZM123.57 98.11H127.854V99.4824H122.226V92.6466H127.604V94.0059H123.57V95.6685C123.869 95.4925 124.201 95.3826 124.566 95.3385C124.93 95.2946 125.31 95.2726 125.706 95.2726H126.707V96.632H125.706C125.389 96.632 125.128 96.6385 124.921 96.6516C124.715 96.6648 124.537 96.6848 124.388 96.7112C124.238 96.7375 124.102 96.7771 123.979 96.83C123.856 96.8825 123.72 96.9486 123.57 97.0277V98.11ZM136.214 98.11V94.0059H134.461C134.382 94.3664 134.294 94.7359 134.197 95.1143C134.1 95.4925 133.993 95.8621 133.874 96.2228C133.756 96.5835 133.619 96.9265 133.466 97.2522C133.312 97.5778 133.143 97.8636 132.958 98.11H136.214ZM137.044 101V99.4824H131.403V101H130.032V98.11H131.35C131.675 97.6964 131.937 97.3027 132.134 96.9289C132.332 96.5549 132.486 96.1986 132.596 95.8598C132.706 95.5212 132.791 95.1978 132.853 94.89C132.914 94.5821 132.976 94.2874 133.037 94.0059H131.956L131.35 92.6466H137.558V98.11H138.415V101H137.044ZM142.676 98.11H145.114C145.255 98.11 145.389 98.0988 145.516 98.0768C145.643 98.055 145.756 98.0154 145.852 97.9583C145.949 97.901 146.028 97.8219 146.089 97.7207C146.151 97.6194 146.182 97.4853 146.182 97.3182C146.182 97.1597 146.151 97.0302 146.089 96.9289C146.028 96.8277 145.949 96.7484 145.852 96.6912C145.756 96.6341 145.641 96.5969 145.51 96.5792C145.378 96.5615 145.246 96.5529 145.114 96.5529H144.811C144.415 96.5529 144.036 96.5308 143.671 96.4869C143.306 96.4428 142.974 96.3328 142.676 96.1567V98.11ZM148.647 99.4824V92.6466H149.991V99.4824H148.647ZM142.676 94.7975C142.825 94.8768 142.961 94.9427 143.084 94.9955C143.207 95.0484 143.343 95.0879 143.493 95.1143C143.642 95.1407 143.82 95.1604 144.027 95.1738C144.233 95.1868 144.495 95.1933 144.811 95.1933H145.114C145.457 95.1933 145.775 95.2397 146.07 95.3322C146.364 95.4245 146.619 95.5585 146.834 95.7346C147.049 95.9107 147.221 96.1347 147.348 96.4075C147.476 96.6804 147.539 96.9925 147.539 97.3447C147.539 97.7053 147.476 98.02 147.348 98.2881C147.221 98.5567 147.049 98.7786 146.834 98.9546C146.619 99.1307 146.364 99.2627 146.07 99.3506C145.775 99.4385 145.457 99.4824 145.114 99.4824H141.318V92.6466H142.676V94.7975Z" fill="black"/>
</svg>
