<svg width="49" height="49" viewBox="0 0 49 49" fill="none" xmlns="http://www.w3.org/2000/svg">
<g id="Subtract" filter="url(#filter0_d_120_1300)">
<path fill-rule="evenodd" clip-rule="evenodd" d="M24.5 37C33.6127 37 41 29.6127 41 20.5C41 11.3873 33.6127 4 24.5 4C15.3873 4 8 11.3873 8 20.5C8 29.6127 15.3873 37 24.5 37ZM19.8954 24.0745C23.3276 27.5059 26.6049 27.9589 27.7613 28.0014C29.5304 28.0665 31.2312 26.731 31.9034 25.1626C31.9872 24.9685 32.0174 24.7554 31.9907 24.5456C31.964 24.3358 31.8814 24.1371 31.7516 23.9701C30.8474 22.8124 29.6331 21.9746 28.5543 21.2303C28.4815 21.18 28.4093 21.1302 28.3379 21.0807C28.0815 20.9034 27.7664 20.832 27.4587 20.8817C27.1509 20.9314 26.8743 21.0983 26.6868 21.3474L25.6669 22.8996C25.6137 22.9833 25.5304 23.0435 25.4342 23.0677C25.3381 23.0919 25.2362 23.0783 25.1498 23.0297C24.4599 22.6346 23.4545 21.9617 22.731 21.2389C22.0082 20.5162 21.377 19.5558 21.0221 18.9109C20.978 18.8286 20.9652 18.7331 20.9862 18.6421C21.0071 18.5512 21.0604 18.4709 21.1361 18.4162L22.7029 17.2526C22.927 17.0584 23.0717 16.7885 23.1097 16.4944C23.1476 16.2003 23.076 15.9025 22.9085 15.6578C22.833 15.5474 22.7564 15.4341 22.6783 15.3186C21.9676 14.268 21.1333 13.0346 19.9757 12.191C19.81 12.071 19.6158 11.9961 19.4124 11.9737C19.209 11.9513 19.0032 11.9822 18.8153 12.0633C17.255 12.7323 15.9043 14.4452 15.9685 16.2087C16.0119 17.3658 16.464 20.6423 19.8954 24.0745Z" fill="black"/>
</g>
<defs>
<filter id="filter0_d_120_1300" x="0.2" y="0.2" width="48.6" height="48.6" filterUnits="userSpaceOnUse" color-interpolation-filters="sRGB">
<feFlood flood-opacity="0" result="BackgroundImageFix"/>
<feColorMatrix in="SourceAlpha" type="matrix" values="0 0 0 0 0 0 0 0 0 0 0 0 0 0 0 0 0 0 127 0" result="hardAlpha"/>
<feOffset dy="4"/>
<feGaussianBlur stdDeviation="3.9"/>
<feComposite in2="hardAlpha" operator="out"/>
<feColorMatrix type="matrix" values="0 0 0 0 0 0 0 0 0 0 0 0 0 0 0 0 0 0 0.25 0"/>
<feBlend mode="normal" in2="BackgroundImageFix" result="effect1_dropShadow_120_1300"/>
<feBlend mode="normal" in="SourceGraphic" in2="effect1_dropShadow_120_1300" result="shape"/>
</filter>
</defs>
</svg>
